<?xml version="1.0" encoding="UTF-8"?>
<svg width="24px" height="24px" viewBox="0 0 24 24" version="1.1" xmlns="http://www.w3.org/2000/svg" xmlns:xlink="http://www.w3.org/1999/xlink">
    <g>
        <path d="M4,21 L20,21 C20.55,21 21,20.55 21,20 C21,19.45 20.55,19 20,19 L4,19 C3.45,19 3,19.45 3,20 C3,20.55 3.45,21 4,21 Z M4,17 L19,17 C19.55,17 20,16.55 20,16 C20,15.45 19.55,15 19,15 L4,15 C3.45,15 3,15.45 3,16 C3,16.55 3.45,17 4,17 Z M16,13 L20,13 C20.55,13 21,12.55 21,12 C21,11.45 20.55,11 20,11 L16,11 C15.45,11 15,11.45 15,12 C15,12.55 15.45,13 16,13 Z M16,9 L19,9 C19.55,9 20,8.55 20,8 C20,7.45 19.55,7 19,7 L16,7 C15.45,7 15,7.45 15,8 C15,8.55 15.45,9 16,9 Z M15,4 C15,4.55 15.45,5 16,5 L20,5 C20.55,5 21,4.55 21,4 C21,3.45 20.55,3 20,3 L16,3 C15.45,3 15,3.45 15,4 Z"></path>
        <path d="M5,3 L11,3 C12.1045695,3 13,3.8954305 13,5 L13,11 C13,12.1045695 12.1045695,13 11,13 L5,13 C3.8954305,13 3,12.1045695 3,11 L3,5 C3,3.8954305 3.8954305,3 5,3 Z M6,5 C5.44771525,5 5,5.44771525 5,6 L5,10 C5,10.5522847 5.44771525,11 6,11 L10,11 C10.5522847,11 11,10.5522847 11,10 L11,6 C11,5.44771525 10.5522847,5 10,5 L6,5 Z"></path>
    </g>
</svg>