<?xml version="1.0" encoding="UTF-8"?>
<svg width="24px" height="24px" viewBox="0 0 24 24" version="1.1" xmlns="http://www.w3.org/2000/svg" xmlns:xlink="http://www.w3.org/1999/xlink">
    <g>
        <path d="M4,21 L20,21 C20.55,21 21,20.55 21,20 C21,19.45 20.55,19 20,19 L4,19 C3.45,19 3,19.45 3,20 C3,20.55 3.45,21 4,21 Z M4,17 L19,17 C19.55,17 20,16.55 20,16 C20,15.45 19.55,15 19,15 L4,15 C3.45,15 3,15.45 3,16 C3,16.55 3.45,17 4,17 Z M4,13 L8,13 C8.55,13 9,12.55 9,12 C9,11.45 8.55,11 8,11 L4,11 C3.45,11 3,11.45 3,12 C3,12.55 3.45,13 4,13 Z M4,9 L7,9 C7.55,9 8,8.55 8,8 C8,7.45 7.55,7 7,7 L4,7 C3.45,7 3,7.45 3,8 C3,8.55 3.45,9 4,9 Z M3,4 C3,4.55 3.45,5 4,5 L8,5 C8.55,5 9,4.55 9,4 C9,3.45 8.55,3 8,3 L4,3 C3.45,3 3,3.45 3,4 Z"></path>
        <path d="M13,3 L19,3 C20.1045695,3 21,3.8954305 21,5 L21,11 C21,12.1045695 20.1045695,13 19,13 L13,13 C11.8954305,13 11,12.1045695 11,11 L11,5 C11,3.8954305 11.8954305,3 13,3 Z M14,5 C13.4477153,5 13,5.44771525 13,6 L13,10 C13,10.5522847 13.4477153,11 14,11 L18,11 C18.5522847,11 19,10.5522847 19,10 L19,6 C19,5.44771525 18.5522847,5 18,5 L14,5 Z"></path>
    </g>
</svg>