<?xml version="1.0" encoding="UTF-8"?>
<svg width="24px" height="24px" viewBox="0 0 24 24" version="1.1" xmlns="http://www.w3.org/2000/svg" xmlns:xlink="http://www.w3.org/1999/xlink">
    <g>
        <path d="M4,21 L20,21 C20.55,21 21,20.55 21,20 C21,19.45 20.55,19 20,19 L4,19 C3.45,19 3,19.45 3,20 C3,20.55 3.45,21 4,21 Z M4,17 L19,17 C19.55,17 20,16.55 20,16 C20,15.45 19.55,15 19,15 L4,15 C3.45,15 3,15.45 3,16 C3,16.55 3.45,17 4,17 Z"></path>
        <path d="M5,3 L19,3 C20.1045695,3 21,3.8954305 21,5 L21,11 C21,12.1045695 20.1045695,13 19,13 L5,13 C3.8954305,13 3,12.1045695 3,11 L3,5 C3,3.8954305 3.8954305,3 5,3 Z M6,5 C5.44771525,5 5,5.44771525 5,6 L5,10 C5,10.5522847 5.44771525,11 6,11 L18,11 C18.5522847,11 19,10.5522847 19,10 L19,6 C19,5.44771525 18.5522847,5 18,5 L6,5 Z"></path>
    </g>
</svg>