<?xml version="1.0" encoding="UTF-8"?>
<svg width="18px" height="18px" viewBox="0 0 18 18" version="1.1" xmlns="http://www.w3.org/2000/svg" xmlns:xlink="http://www.w3.org/1999/xlink">
    <!-- Generator: Sketch 48.2 (47327) - http://www.bohemiancoding.com/sketch -->
    <title>arrow</title>
    <desc>Created with Sketch.</desc>
    <defs></defs>
    <g id="Symbols" stroke="none" stroke-width="1" fill="none" fill-rule="evenodd">
        <g id="arrow" fill="#050505">
            <path d="M4.70846426,9.65575238 C4.31759956,10.0466171 3.68688129,10.0496157 3.29363434,9.65636874 C2.90311005,9.26584445 2.90092906,8.63486046 3.29425069,8.24153882 L7.53627503,3.99951449 C8.31732361,3.21846591 9.58365357,3.21846591 10.3647022,3.99951449 L14.6067265,8.24153882 C14.9975912,8.63240352 15.0005898,9.26312178 14.6073428,9.65636874 C14.2168185,10.046893 13.5858346,10.049074 13.1925129,9.65575238 L9.88658107,6.34982053 L9.88658107,14.9970412 C9.88658107,15.5506919 9.44271624,15.9995145 8.88658107,15.9995145 C8.33429632,15.9995145 7.88658107,15.5437535 7.88658107,14.9970412 L7.88658107,6.47763557 L4.70846426,9.65575238 Z" id="Oval-15" transform="translate(8.950539, 9.499757) rotate(90.000000) translate(-8.950539, -9.499757) "></path>
        </g>
    </g>
</svg>