<?xml version="1.0" encoding="UTF-8"?>
<svg width="18px" height="18px" viewBox="0 0 18 18" version="1.1" xmlns="http://www.w3.org/2000/svg" xmlns:xlink="http://www.w3.org/1999/xlink">
    <!-- Generator: Sketch 48.2 (47327) - http://www.bohemiancoding.com/sketch -->
    <title>bold</title>
    <desc>Created with Sketch.</desc>
    <defs></defs>
    <g id="Symbols" stroke="none" stroke-width="1" fill="none" fill-rule="evenodd">
        <g id="bold" fill="#010101">
            <path d="M4.8,15.08 L4.8,2.28 L3.52,1.34 L3.52,1.1 L7.36,0 L7.6,0 L7.6,6.88 L7.72,6.88 C8.2000024,6.4533312 8.6666644,6.1466676 9.12,5.96 C9.5733356,5.7733324 10.066664,5.68 10.6,5.68 C11.1866696,5.68 11.7366641,5.8566649 12.25,6.21 C12.7633359,6.5633351 13.1733318,7.0666634 13.48,7.72 C13.7866682,8.3733366 13.94,9.1533288 13.94,10.06 C13.94,11.126672 13.7233355,12.0433295 13.29,12.81 C12.8566645,13.5766705 12.2866702,14.1666646 11.58,14.58 C10.8733298,14.9933354 10.0933376,15.2 9.24,15.2 C8.6666638,15.2 8.1400024,15.1400006 7.66,15.02 C7.1799976,14.8999994 6.7333354,14.706668 6.32,14.44 L5.04,15.08 L4.8,15.08 Z M8.94,7.32 C8.6999988,7.32 8.4766677,7.353333 8.27,7.42 C8.0633323,7.486667 7.8400012,7.586666 7.6,7.72 L7.6,13.5 C7.9866686,13.9400022 8.4866636,14.16 9.1,14.16 C9.433335,14.16 9.7566651,14.0566677 10.07,13.85 C10.3833349,13.6433323 10.639999,13.2800026 10.84,12.76 C11.040001,12.2399974 11.14,11.5066714 11.14,10.56 C11.14,9.4533278 10.9133356,8.6366693 10.46,8.11 C10.0066644,7.5833307 9.5000028,7.32 8.94,7.32 Z" id="b"></path>
        </g>
    </g>
</svg>