<?xml version="1.0" encoding="UTF-8"?>
<svg width="18px" height="18px" viewBox="0 0 18 18" version="1.1" xmlns="http://www.w3.org/2000/svg" xmlns:xlink="http://www.w3.org/1999/xlink">
    <!-- Generator: Sketch 48.2 (47327) - http://www.bohemiancoding.com/sketch -->
    <title>bold</title>
    <desc>Created with Sketch.</desc>
    <defs></defs>
    <g id="Symbols" stroke="none" stroke-width="1" fill="none" fill-rule="evenodd">
        <g id="bold" fill="#333333">
            <path d="M7.52,12.22 C7.52,12.7133358 7.5899993,13.1699979 7.73,13.59 C7.8700007,14.0100021 8.0599988,14.3733318 8.3,14.68 C8.5400012,14.9866682 8.826665,15.2266658 9.16,15.4 C9.493335,15.5733342 9.859998,15.66 10.26,15.66 C11.060004,15.66 11.6666646,15.293337 12.08,14.56 C12.4933354,13.826663 12.7,12.7466738 12.7,11.32 C12.7,9.9333264 12.4966687,8.8766703 12.09,8.15 C11.6833313,7.4233297 11.0733374,7.06 10.26,7.06 C9.7799976,7.06 9.3366687,7.1899987 8.93,7.45 C8.5233313,7.7100013 8.2066678,8.073331 7.98,8.54 C7.6733318,9.1800032 7.52,9.9866618 7.52,10.96 L7.52,12.22 Z M7.48,7.38 L7.56,7.38 C7.9066684,6.8733308 8.3533306,6.4833347 8.9,6.21 C9.4466694,5.9366653 10.0666632,5.8 10.76,5.8 C11.4666702,5.8 12.1233303,5.9433319 12.73,6.23 C13.3366697,6.5166681 13.8633311,6.9066642 14.31,7.4 C14.7566689,7.8933358 15.1066654,8.47333 15.36,9.14 C15.6133346,9.80667 15.74,10.5199962 15.74,11.28 C15.74,12.080004 15.6033347,12.8166633 15.33,13.49 C15.0566653,14.1633367 14.6833357,14.7466642 14.21,15.24 C13.7366643,15.7333358 13.1833365,16.1199986 12.55,16.4 C11.9166635,16.6800014 11.2466702,16.82 10.54,16.82 C9.806663,16.82 9.1166699,16.6766681 8.47,16.39 C7.8233301,16.1033319 7.3066686,15.726669 6.92,15.26 L5.4,16.6 L4.72,16.6 L4.72,4.7 C4.72,3.4466604 4.6333342,2.586669 4.46,2.12 C4.4199998,2.0266662 4.3733336,1.946667 4.32,1.88 C4.2666664,1.813333 4.1900005,1.7566669 4.09,1.71 C3.9899995,1.6633331 3.8533342,1.6233335 3.68,1.59 C3.5066658,1.5566665 3.2800014,1.5200002 3,1.48 L3,0.8 L7.48,0 L7.48,7.38 Z" id="b"></path>
        </g>
    </g>
</svg>