<?xml version="1.0" encoding="UTF-8"?>
<svg width="18px" height="18px" viewBox="0 0 18 18" version="1.1" xmlns="http://www.w3.org/2000/svg" xmlns:xlink="http://www.w3.org/1999/xlink">
    <!-- Generator: Sketch 48.2 (47327) - http://www.bohemiancoding.com/sketch -->
    <title>calendar</title>
    <desc>Created with Sketch.</desc>
    <defs></defs>
    <g id="Symbols" stroke="none" stroke-width="1" fill="none" fill-rule="evenodd">
        <g id="calendar" fill="#010101">
            <path d="M3,0 L15,0 C16.6568542,-3.04359188e-16 18,1.34314575 18,3 L18,15 C18,16.6568542 16.6568542,18 15,18 L3,18 C1.34314575,18 -6.85272294e-16,16.6568542 -8.8817842e-16,15 L0,3 C-2.02906125e-16,1.34314575 1.34314575,-5.83819232e-16 3,-8.8817842e-16 Z M2,6 L2,15 C2,15.5522847 2.44771525,16 3,16 L15,16 C15.5522847,16 16,15.5522847 16,15 L16,6 L2,6 Z M9.0021149,7.00000219 C9.25873637,6.99946695 9.51552457,7.09709729 9.7113205,7.29289322 C9.93000313,7.51157585 10.0262296,7.80634298 10,8.09198424 L10,14 C10,14.5522847 9.55228475,15 9,15 C8.44771525,15 8,14.5522847 8,14 L8,10.3265955 C7.63217402,10.4918048 7.1849528,10.4233798 6.88289337,10.1213203 C6.49236908,9.73079605 6.49236908,9.09763107 6.88289337,8.70710678 L8.24028769,7.34971246 C8.4236934,7.1356458 8.69600581,7 9,7 L9.0021149,7.00000219 Z" id="Combined-Shape"></path>
        </g>
    </g>
</svg>