<?xml version="1.0" encoding="UTF-8"?>
<svg width="24px" height="24px" viewBox="0 0 24 24" version="1.1" xmlns="http://www.w3.org/2000/svg" xmlns:xlink="http://www.w3.org/1999/xlink">
    <!-- Generator: Sketch 48.2 (47327) - http://www.bohemiancoding.com/sketch -->
    <title>calendar</title>
    <desc>Created with Sketch.</desc>
    <defs></defs>
    <g id="Symbols" stroke="none" stroke-width="1" fill="none" fill-rule="evenodd">
        <g id="calendar" fill="#010101">
            <path d="M5,2 L19,2 C20.6568542,2 22,3.34314575 22,5 L22,19 C22,20.6568542 20.6568542,22 19,22 L5,22 C3.34314575,22 2,20.6568542 2,19 L2,5 C2,3.34314575 3.34314575,2 5,2 Z M4,8 L4,19 C4,19.5522847 4.44771525,20 5,20 L19,20 C19.5522847,20 20,19.5522847 20,19 L20,8 L4,8 Z M12.0021149,10.0000022 C12.2587364,9.99946695 12.5155246,10.0970973 12.7113205,10.2928932 C12.9300031,10.5115759 13.0262296,10.806343 13,11.0919842 L13,17 C13,17.5522847 12.5522847,18 12,18 C11.4477153,18 11,17.5522847 11,17 L11,13.3265955 C10.632174,13.4918048 10.1849528,13.4233798 9.88289337,13.1213203 C9.49236908,12.7307961 9.49236908,12.0976311 9.88289337,11.7071068 L11.2402877,10.3497125 C11.4236934,10.1356458 11.6960058,10 12,10 L12.0021149,10.0000022 Z" id="Combined-Shape"></path>
        </g>
    </g>
</svg>