<?xml version="1.0" encoding="UTF-8"?>
<svg width="24px" height="24px" viewBox="0 0 24 24" version="1.1" xmlns="http://www.w3.org/2000/svg" xmlns:xlink="http://www.w3.org/1999/xlink">
    <!-- Generator: Sketch 48.2 (47327) - http://www.bohemiancoding.com/sketch -->
    <title>camera</title>
    <desc>Created with Sketch.</desc>
    <defs></defs>
    <g id="Symbols" stroke="none" stroke-width="1" fill="none" fill-rule="evenodd">
        <g id="camera" fill="#050505">
            <path d="M3.9992748,4 C1.78679466,4 0,5.79051625 0,7.99922997 L0,17.00077 C0,19.2075324 1.79053632,21 3.9992748,21 L20.0007252,21 C22.2132053,21 24,19.2094838 24,17.00077 L24,7.99922997 C24,5.79246765 22.2094637,4 20.0007252,4 L17,4 C17,3.44386482 16.5511774,3 15.9975267,3 L8.00247329,3 C7.45576096,3 7,3.44771525 7,4 L3.9992748,4 Z M12,19 C14.4852814,19 16.5,16.9852814 16.5,14.5 C16.5,12.0147186 14.4852814,10 12,10 C9.51471863,10 7.5,12.0147186 7.5,14.5 C7.5,16.9852814 9.51471863,19 12,19 L12,19 Z M12,17.6000004 C13.6568542,17.6000004 15,16.2568546 15,14.6000004 C15,12.9431461 13.6568542,11.6000004 12,11.6000004 C10.3431458,11.6000004 9,12.9431461 9,14.6000004 C9,16.2568546 10.3431458,17.6000004 12,17.6000004 L12,17.6000004 Z M12,17 C10.6192881,17 9.5,15.8807119 9.5,14.5 C9.5,14.2238576 9.72385763,14 10,14 C10.2761424,14 10.5,14.2238576 10.5,14.5 C10.5,15.3284271 11.1715729,16 12,16 C12.2761424,16 12.5,16.2238576 12.5,16.5 C12.5,16.7761424 12.2761424,17 12,17 Z M15,5.50468445 L15,6 L20,6 C21.1045695,6 22,6.8954305 22,8 L2,8 C2,6.8954305 2.8954305,6 4,6 L9,6 L9,5.50468445 C9,5.22595492 9.23079681,5 9.50043583,5 L14.4995642,5 C14.7759472,5 15,5.21403503 15,5.50468445 Z" id="Combined-Shape"></path>
        </g>
    </g>
</svg>