<?xml version="1.0" encoding="UTF-8"?>
<svg width="18px" height="18px" viewBox="0 0 18 18" version="1.1" xmlns="http://www.w3.org/2000/svg" xmlns:xlink="http://www.w3.org/1999/xlink">
    <!-- Generator: Sketch 48.2 (47327) - http://www.bohemiancoding.com/sketch -->
    <title>camera</title>
    <desc>Created with Sketch.</desc>
    <defs></defs>
    <g id="Symbols" stroke="none" stroke-width="1" fill="none" fill-rule="evenodd">
        <g id="camera" fill="#050505">
            <path d="M0,5.99922997 L0,13.00077 C0,15.2075324 1.79053632,17 3.9992748,17 L14.0007252,17 C16.2132053,17 18,15.2094838 18,13.00077 L18,5.99922997 C18,3.79246765 16.2094637,2 14.0007252,2 C14,1.44386482 13.5511774,1 12.9975267,1 L5.00247329,1 C4.45576096,1 4,1.44771525 4,2 C1.78679466,2 0,3.79051625 0,5.99922997 Z M9,15 C11.4852814,15 13.5,12.9852814 13.5,10.5 C13.5,8.01471863 11.4852814,6 9,6 C6.51471863,6 4.5,8.01471863 4.5,10.5 C4.5,12.9852814 6.51471863,15 9,15 L9,15 Z M9,13.6000004 C10.6568542,13.6000004 12,12.2568546 12,10.6000004 C12,8.94314613 10.6568542,7.60000038 9,7.60000038 C7.34314575,7.60000038 6,8.94314613 6,10.6000004 C6,12.2568546 7.34314575,13.6000004 9,13.6000004 L9,13.6000004 Z M9,13 C7.61928813,13 6.5,11.8807119 6.5,10.5 C6.5,10.2238576 6.72385763,10 7,10 C7.27614237,10 7.5,10.2238576 7.5,10.5 C7.5,11.3284271 8.17157288,12 9,12 C9.27614237,12 9.5,12.2238576 9.5,12.5 C9.5,12.7761424 9.27614237,13 9,13 Z M12,3.50468445 L12,4 C13.3333333,4 14.3333333,4 15,4 C15.6666667,4 16,4.33333333 16,5 L2,5 C2,4.33333333 2.33333333,4 3,4 C3.66666667,4 4.66666667,4 6,4 L6,3.50468445 C6,3.22595492 6.23079681,3 6.50043583,3 L11.4995642,3 C11.7759472,3 12,3.21403503 12,3.50468445 Z" id="Combined-Shape"></path>
        </g>
    </g>
</svg>