<?xml version="1.0" encoding="UTF-8"?>
<svg width="18px" height="18px" viewBox="0 0 18 18" version="1.1" xmlns="http://www.w3.org/2000/svg" xmlns:xlink="http://www.w3.org/1999/xlink">
    <!-- Generator: Sketch 48.2 (47327) - http://www.bohemiancoding.com/sketch -->
    <title>cancel</title>
    <desc>Created with Sketch.</desc>
    <defs></defs>
    <g id="Symbols" stroke="none" stroke-width="1" fill="none" fill-rule="evenodd">
        <g id="cancel" fill="#010101">
            <path d="M8.99924473,7.58503116 L13.2913827,3.29289322 C13.681907,2.90236893 14.3150719,2.90236893 14.7055962,3.29289322 C15.0961205,3.68341751 15.0961205,4.31658249 14.7055962,4.70710678 L10.4134583,8.99924473 L14.7055962,13.2913827 C15.0961205,13.681907 15.0961205,14.3150719 14.7055962,14.7055962 C14.3150719,15.0961205 13.681907,15.0961205 13.2913827,14.7055962 L8.99924473,10.4134583 L4.70710678,14.7055962 C4.31658249,15.0961205 3.68341751,15.0961205 3.29289322,14.7055962 C2.90236893,14.3150719 2.90236893,13.681907 3.29289322,13.2913827 L7.58503116,8.99924473 L3.29289322,4.70710678 C2.90236893,4.31658249 2.90236893,3.68341751 3.29289322,3.29289322 C3.68341751,2.90236893 4.31658249,2.90236893 4.70710678,3.29289322 L8.99924473,7.58503116 Z" id="Combined-Shape"></path>
        </g>
    </g>
</svg>