<?xml version="1.0" encoding="UTF-8"?>
<svg width="24px" height="24px" viewBox="0 0 24 24" version="1.1" xmlns="http://www.w3.org/2000/svg" xmlns:xlink="http://www.w3.org/1999/xlink">
    <!-- Generator: Sketch 48.2 (47327) - http://www.bohemiancoding.com/sketch -->
    <title>cancel</title>
    <desc>Created with Sketch.</desc>
    <defs></defs>
    <g id="Symbols" stroke="none" stroke-width="1" fill="none" fill-rule="evenodd">
        <g id="cancel" fill="#010101">
            <path d="M11.9992447,10.5850312 L16.2913827,6.29289322 C16.681907,5.90236893 17.3150719,5.90236893 17.7055962,6.29289322 C18.0961205,6.68341751 18.0961205,7.31658249 17.7055962,7.70710678 L13.4134583,11.9992447 L17.7055962,16.2913827 C18.0961205,16.681907 18.0961205,17.3150719 17.7055962,17.7055962 C17.3150719,18.0961205 16.681907,18.0961205 16.2913827,17.7055962 L11.9992447,13.4134583 L7.70710678,17.7055962 C7.31658249,18.0961205 6.68341751,18.0961205 6.29289322,17.7055962 C5.90236893,17.3150719 5.90236893,16.681907 6.29289322,16.2913827 L10.5850312,11.9992447 L6.29289322,7.70710678 C5.90236893,7.31658249 5.90236893,6.68341751 6.29289322,6.29289322 C6.68341751,5.90236893 7.31658249,5.90236893 7.70710678,6.29289322 L11.9992447,10.5850312 Z" id="Combined-Shape"></path>
        </g>
    </g>
</svg>