<?xml version="1.0" encoding="UTF-8"?>
<svg width="18px" height="18px" viewBox="0 0 18 18" version="1.1" xmlns="http://www.w3.org/2000/svg" xmlns:xlink="http://www.w3.org/1999/xlink">
    <!-- Generator: Sketch 48.2 (47327) - http://www.bohemiancoding.com/sketch -->
    <title>coin</title>
    <desc>Created with Sketch.</desc>
    <defs></defs>
    <g id="Symbols" stroke="none" stroke-width="1" fill="none" fill-rule="evenodd">
        <g id="coin" fill="#010101">
            <path d="M9,18 C4.02943725,18 0,13.9705627 0,9 C0,4.02943725 4.02943725,0 9,0 C13.9705627,0 18,4.02943725 18,9 C18,13.9705627 13.9705627,18 9,18 Z M8,13.8739825 L8,14 C8,14.5522847 8.44771525,15 9,15 C9.55228475,15 10,14.5522847 10,14 L10,13.8739825 C11.7252272,13.4299397 12,12.8638394 12,11 C12,8.790861 11.209139,8 9,8 C7.8954305,8 8,8.1045695 8,7 C8,5.8954305 7.8954305,6 9,6 C10.1045695,6 10,5.8954305 10,7 C10,7.55228475 10.4477153,8 11,8 C11.5522847,8 12,7.55228475 12,7 C12,5.13616057 11.7252272,4.57006028 10,4.12601749 L10,4 C10,3.44771525 9.55228475,3 9,3 C8.44771525,3 8,3.44771525 8,4 L8,4.12601749 C6.27477279,4.57006028 6,5.13616057 6,7 C6,9.209139 6.790861,10 9,10 C10.1045695,10 10,9.8954305 10,11 C10,12.1045695 10.1045695,12 9,12 C7.8954305,12 8,12.1045695 8,11 C8,10.4477153 7.55228475,10 7,10 C6.44771525,10 6,10.4477153 6,11 C6,12.8638394 6.27477279,13.4299397 8,13.8739825 Z" id="Combined-Shape"></path>
        </g>
    </g>
</svg>