<?xml version="1.0" encoding="UTF-8"?>
<svg width="30px" height="30px" viewBox="0 0 30 30" version="1.1" xmlns="http://www.w3.org/2000/svg" xmlns:xlink="http://www.w3.org/1999/xlink">
    <!-- Generator: Sketch 48.2 (47327) - http://www.bohemiancoding.com/sketch -->
    <title>download</title>
    <desc>Created with Sketch.</desc>
    <defs></defs>
    <g id="Icons" stroke="none" stroke-width="1" fill="none" fill-rule="evenodd">
        <g id="download" fill="#050505">
            <path d="M10.8218832,14.6557524 C10.4310185,15.0466171 9.80030023,15.0496157 9.40705327,14.6563687 C9.01652898,14.2658444 9.01434799,13.6348605 9.40766963,13.2415388 L14.3589776,8.29023088 C14.7482996,7.90090882 15.3842177,7.90561107 15.7688375,8.29023088 L20.7201454,13.2415388 C21.1110101,13.6324035 21.1140087,14.2631218 20.7207618,14.6563687 C20.3302375,15.046893 19.6992535,15.049074 19.3059319,14.6557524 L16,11.3498205 L16,19.9970412 C16,20.5506919 15.5561352,20.9995145 15,20.9995145 C14.4477153,20.9995145 14,20.5437535 14,19.9970412 L14,11.4776356 L10.8218832,14.6557524 Z" id="Oval-15" transform="translate(15.063958, 14.499757) scale(1, -1) translate(-15.063958, -14.499757) "></path>
        </g>
    </g>
</svg>