<?xml version="1.0" encoding="UTF-8"?>
<svg width="24px" height="24px" viewBox="0 0 24 24" version="1.1" xmlns="http://www.w3.org/2000/svg" xmlns:xlink="http://www.w3.org/1999/xlink">
    <!-- Generator: Sketch 48.2 (47327) - http://www.bohemiancoding.com/sketch -->
    <title>email</title>
    <desc>Created with Sketch.</desc>
    <defs></defs>
    <g id="Symbols" stroke="none" stroke-width="1" fill="none" fill-rule="evenodd">
        <g id="email" fill="#050505">
            <path d="M3,5 L21,5 C22.1045695,5 23,5.8954305 23,7 L23,17 C23,18.1045695 22.1045695,19 21,19 L3,19 C1.8954305,19 1,18.1045695 1,17 L1,7 C1,5.8954305 1.8954305,5 3,5 Z M20.4205326,9.90754193 C20.7627102,9.7487179 21,9.40206995 21,9 C21,8.44771525 20.5522847,8 20,8 C19.889318,8 19.7828359,8.01798166 19.6833155,8.05118299 L19.6829681,8.05030823 L19.6504545,8.06279105 C19.6445893,8.06497949 19.6387502,8.06722141 19.6329377,8.06951622 L12.7169251,10.7247537 C12.2554016,10.9019447 11.7446065,10.9019236 11.2830975,10.7246947 L4.31892395,8.05030823 L4.31836228,8.0517444 C4.21836127,8.01818441 4.11130423,8 4,8 C3.44771525,8 3,8.44771525 3,9 C3,9.46072671 3.31157497,9.84868118 3.73551101,9.96464952 L10.6220397,12.4939079 C11.5116716,12.8206486 12.4884189,12.8208952 13.3782156,12.4946037 L20.4221344,9.91157532 L20.4205326,9.90754193 Z" id="Combined-Shape"></path>
        </g>
    </g>
</svg>