<?xml version="1.0" encoding="UTF-8"?>
<svg width="18px" height="18px" viewBox="0 0 18 18" version="1.1" xmlns="http://www.w3.org/2000/svg" xmlns:xlink="http://www.w3.org/1999/xlink">
    <!-- Generator: Sketch 48.2 (47327) - http://www.bohemiancoding.com/sketch -->
    <title>email</title>
    <desc>Created with Sketch.</desc>
    <defs></defs>
    <g id="Symbols" stroke="none" stroke-width="1" fill="none" fill-rule="evenodd">
        <g id="email" fill="#050505">
            <path d="M2,2 L16,2 C17.1045695,2 18,2.8954305 18,4 L18,14 C18,15.1045695 17.1045695,16 16,16 L2,16 C0.8954305,16 1.3527075e-16,15.1045695 0,14 L0,4 C-1.3527075e-16,2.8954305 0.8954305,2 2,2 Z M10.3782156,9.49460374 L15.4205326,6.90754193 C15.7627102,6.7487179 16,6.40206995 16,6 C16,5.44771525 15.5522847,5 15,5 C14.889318,5 14.7828359,5.01798166 14.6829681,5.05030823 C14.6534895,5.06158368 14.6368127,5.06798635 14.6329377,5.06951622 L9.71692514,7.72475375 C9.25540163,7.90194465 8.74460645,7.9019236 8.28309755,7.72469466 L3.31836228,5.0517444 C3.21836127,5.01818441 3.11130423,5 3,5 C2.44771525,5 2,5.44771525 2,6 C2,6.46072671 2.31157497,6.84868118 2.73551101,6.96464952 L7.62203972,9.49390792 C8.51167155,9.82064856 9.48841894,9.82089515 10.3782156,9.49460374 Z" id="Combined-Shape"></path>
        </g>
    </g>
</svg>