<?xml version="1.0" encoding="UTF-8"?>
<svg width="18px" height="18px" viewBox="0 0 18 18" version="1.1" xmlns="http://www.w3.org/2000/svg" xmlns:xlink="http://www.w3.org/1999/xlink">
    <!-- Generator: Sketch 48.2 (47327) - http://www.bohemiancoding.com/sketch -->
    <title>emoji</title>
    <desc>Created with Sketch.</desc>
    <defs></defs>
    <g id="Symbols" stroke="none" stroke-width="1" fill="none" fill-rule="evenodd">
        <g id="emoji" fill="#010101">
            <path d="M9,18 C13.9705627,18 18,13.9705627 18,9 C18,4.02943725 13.9705627,0 9,0 C4.02943725,0 0,4.02943725 0,9 C0,13.9705627 4.02943725,18 9,18 L9,18 Z M5.7,8.8 C6.19705627,8.8 6.6,8.39705627 6.6,7.9 C6.6,7.40294373 6.19705627,7 5.7,7 C5.20294373,7 4.8,7.40294373 4.8,7.9 C4.8,8.39705627 5.20294373,8.8 5.7,8.8 L5.7,8.8 Z M12.3,8.8 C11.8029437,8.8 11.4,8.39705627 11.4,7.9 C11.4,7.40294373 11.8029437,7 12.3,7 C12.7970563,7 13.2,7.40294373 13.2,7.9 C13.2,8.39705627 12.7970563,8.8 12.3,8.8 Z M12.1265589,11.6969694 C12.3792928,11.8710084 12.4647289,12.295585 12.126559,12.6723441 C11.3576373,13.5290087 10.2417501,14.0678923 9,14.0678923 C7.75966483,14.0678923 6.64490599,13.5302361 5.87607092,12.6752713 C5.55897236,12.3226494 5.64737067,11.8692863 5.87607093,11.6969694 C6.12986575,11.5057448 6.55345706,11.6238769 6.72340181,11.8217142 C7.27359148,12.4622047 8.08941904,12.8678923 9,12.8678923 C9.89159762,12.8678923 10.6923514,12.4789436 11.2418431,11.8614644 C11.4745083,11.600012 11.8804853,11.5275169 12.1265589,11.6969694 Z" id="Oval-33"></path>
        </g>
    </g>
</svg>