<?xml version="1.0" encoding="UTF-8"?>
<svg width="18px" height="18px" viewBox="0 0 18 18" version="1.1" xmlns="http://www.w3.org/2000/svg" xmlns:xlink="http://www.w3.org/1999/xlink">
    <!-- Generator: Sketch 48.2 (47327) - http://www.bohemiancoding.com/sketch -->
    <title>export</title>
    <desc>Created with Sketch.</desc>
    <defs></defs>
    <g id="Symbols" stroke="none" stroke-width="1" fill="none" fill-rule="evenodd">
        <g id="export" fill="#010101">
            <path d="M14.9931545,16 C15.5492199,16 16,15.5566468 16,14.9906311 L16,13.0093689 C16,12.4519098 16.4438648,12 17,12 C17.5522847,12 18,12.4509752 18,12.990778 L18,15 C18,16.6568542 16.6470745,18 15.0074602,18 L2.99253976,18 C1.33980569,18 0,16.6470745 0,15.0074602 L0,2.99253976 C0,1.33980569 1.34651712,0 3,0 L5.00922203,0 C5.55641359,0 6,0.443864822 6,1 C6,1.55228475 5.55664682,2 4.9906311,2 L3.0093689,2 C2.45190985,2 2,2.44994876 2,3.00684547 L2,14.9931545 C2,15.5492199 2.44994876,16 3.00684547,16 L14.9931545,16 Z M16,9.00660232 L16,3.41508969 L9.71234821,9.70274148 C9.31320152,10.1018882 8.68271198,10.0992127 8.29218769,9.70868843 C7.89894074,9.31544148 7.90432594,8.68233662 8.29813464,8.28852792 L14.5866626,2 L8.99339768,2 C8.44475929,2 8,1.55613518 8,1 C8,0.44771525 8.45530558,7.10542736e-15 8.99180311,7.10542736e-15 L16.0092049,0 C17.1086907,0 18,0.898212381 18,1.99079514 L18,9.00819689 C18,9.55595462 17.5561352,10 17,10 C16.4477153,10 16,9.55505371 16,9.00660232 Z" id="Combined-Shape"></path>
        </g>
    </g>
</svg>