<?xml version="1.0" encoding="UTF-8"?>
<svg width="24px" height="24px" viewBox="0 0 24 24" version="1.1" xmlns="http://www.w3.org/2000/svg" xmlns:xlink="http://www.w3.org/1999/xlink">
    <!-- Generator: Sketch 48.2 (47327) - http://www.bohemiancoding.com/sketch -->
    <title>export</title>
    <desc>Created with Sketch.</desc>
    <defs></defs>
    <g id="Symbols" stroke="none" stroke-width="1" fill="none" fill-rule="evenodd">
        <g id="export" fill="#010101">
            <path d="M20,5.41508969 L13.7123482,11.7027415 C13.3132015,12.1018882 12.682712,12.0992127 12.2921877,11.7086884 C11.8989407,11.3154415 11.9043259,10.6823366 12.2981346,10.2885279 L18.5866626,4 L12.9933977,4 C12.4447593,4 12,3.55613518 12,3 C12,2.44771525 12.4553056,2 12.9918031,2 L20.0092049,2 C21.1086907,2 22,2.89821238 22,3.99079514 L22,11.0081969 C22,11.5559546 21.5561352,12 21,12 C20.4477153,12 20,11.5550537 20,11.0066023 L20,5.41508969 Z M18.9991283,20 C19.5518945,20 20,19.5562834 20,19.0001925 L20,15.9998075 C20,15.4476291 20.4438648,15 21,15 C21.5522847,15 22,15.4378814 22,16.0029293 L22,18.9907455 C22,20.6527109 20.656688,22 19.0057979,22 L4.99420208,22 C3.34054993,22 2,20.656688 2,19.0057979 L2,4.99420208 C2,3.34054993 3.34967041,2 5.00925446,2 L7.99707067,2 C8.55097324,2 9,2.44386482 9,3 C9,3.55228475 8.55628335,4 8.00019251,4 L4.99980749,4 C4.44762906,4 4,4.44463086 4,5.00087166 L4,18.9991283 C4,19.5518945 4.44463086,20 5.00087166,20 L18.9991283,20 Z" id="Combined-Shape"></path>
        </g>
    </g>
</svg>