<?xml version="1.0" encoding="UTF-8"?>
<svg width="24px" height="24px" viewBox="0 0 24 24" version="1.1" xmlns="http://www.w3.org/2000/svg" xmlns:xlink="http://www.w3.org/1999/xlink">
    <!-- Generator: Sketch 48.2 (47327) - http://www.bohemiancoding.com/sketch -->
    <title>eye-closed</title>
    <desc>Created with Sketch.</desc>
    <defs></defs>
    <g id="Symbols" stroke="none" stroke-width="1" fill="none" fill-rule="evenodd">
        <g id="eye-closed" fill="#010101">
            <path d="M24,12 C24,12.8221904 23.5493352,13.8697133 22.7715165,14.9573024 L23.6355343,15.8213202 C24.0260586,16.2118444 24.0260586,16.8450094 23.6355343,17.2355337 C23.24501,17.626058 22.611845,17.626058 22.2213207,17.2355337 L21.4772764,16.4914894 C21.129031,16.8488133 20.7515456,17.2010752 20.3492377,17.5416486 L21.0230063,18.4040332 C21.3630268,18.8392395 21.2858634,19.467685 20.850657,19.8077054 C20.4154507,20.1477258 19.7870053,20.0705624 19.4469848,19.6353561 L18.7482036,18.7409569 C18.1599423,19.1289592 17.5396232,19.4839971 16.8966667,19.7919403 L17.328926,20.7189234 C17.5623317,21.2194633 17.3457765,21.8144438 16.8452365,22.0478494 C16.3446966,22.281255 15.7497161,22.0646999 15.5163105,21.5641599 L15.0311889,20.5238133 C14.3644875,20.7275178 13.6844282,20.8727005 13,20.9458777 L13,22 C13,22.5522847 12.5522847,23 12,23 C11.4477153,23 11,22.5522847 11,22 L11,20.9458777 C10.3155718,20.8727005 9.63551245,20.7275178 8.96881112,20.5238133 L8.48368953,21.5641599 C8.2502839,22.0646999 7.65530345,22.281255 7.15476348,22.0478494 C6.65422351,21.8144438 6.43766833,21.2194633 6.67107395,20.7189234 L7.10333325,19.7919403 C6.4696727,19.4884494 5.85799977,19.1392157 5.27733197,18.7577656 L4.59168308,19.6353561 C4.25166263,20.0705624 3.62321717,20.1477258 3.18801085,19.8077054 C2.75280453,19.467685 2.67564113,18.8392395 3.01566157,18.4040332 L3.6740538,17.5613296 C3.23296094,17.1893028 2.82146426,16.8031391 2.4453448,16.4115098 L1.72132034,17.1355343 C1.33079605,17.5260586 0.697631067,17.5260586 0.307106775,17.1355343 C-0.0834175165,16.74501 -0.0834175165,16.111845 0.307106775,15.7213207 L1.16328719,14.8651403 C0.425537921,13.8106512 6.52280441e-17,12.7989411 0,12 C0,11.4477153 0.44771525,11 1,11 C1.55228475,11 2,11.4477153 2,12 C2,14 7,19 12,19 C17,19 22,14 22,12 C22,11.4477153 22.4477153,11 23,11 C23.5522847,11 24,11.4477153 24,12 Z" id="Combined-Shape"></path>
        </g>
    </g>
</svg>