<?xml version="1.0" encoding="UTF-8"?>
<svg width="18px" height="18px" viewBox="0 0 18 18" version="1.1" xmlns="http://www.w3.org/2000/svg" xmlns:xlink="http://www.w3.org/1999/xlink">
    <!-- Generator: Sketch 48.2 (47327) - http://www.bohemiancoding.com/sketch -->
    <title>eye-closed</title>
    <desc>Created with Sketch.</desc>
    <defs></defs>
    <g id="Symbols" stroke="none" stroke-width="1" fill="none" fill-rule="evenodd">
        <g id="eye-closed" fill="#010101">
            <path d="M16,9 C16,8.44771525 16.4477153,8 17,8 C17.5522847,8 18,8.44771525 18,9 C18,9.01565344 17.9996403,9.03122287 17.9989288,9.04670049 C17.9694053,9.70737816 17.330474,11.0507601 16.1918281,12.3821234 L16.9604517,13.2981333 C17.3154535,13.721208 17.2602695,14.3519636 16.8371949,14.7069654 C16.4141202,15.0619672 15.7833646,15.0067832 15.4283628,14.5837085 L14.7631874,13.7909834 C14.3492129,14.1340115 13.8995509,14.4565857 13.4165718,14.7436928 L13.80798,15.8190779 C13.9968725,16.3380558 13.7292854,16.9118981 13.2103075,17.1007906 C12.6913296,17.2896831 12.1174872,17.0220961 11.9285947,16.5031181 L11.5927106,15.5802842 C11.0864086,15.7472336 10.5549134,15.870482 10,15.9387862 L10,17 C10,17.5522847 9.55228475,18 9,18 C8.44771525,18 8,17.5522847 8,17 L8,15.9387862 C7.44508665,15.870482 6.91359137,15.7472336 6.40728938,15.5802842 L6.07140529,16.5031181 C5.88251278,17.0220961 5.30867043,17.2896831 4.78969253,17.1007906 C4.27071462,16.9118981 4.00312754,16.3380558 4.19202005,15.8190779 L4.58342819,14.7436928 C4.10044909,14.4565857 3.65078706,14.1340115 3.23681259,13.7909834 L2.57163717,14.5837085 C2.21663538,15.0067832 1.58587978,15.0619672 1.16280512,14.7069654 C0.739730455,14.3519636 0.68454649,13.721208 1.03954828,13.2981333 L1.80817187,12.3821234 C0.669525963,11.0507601 0.0305947094,9.70737816 0.00107117496,9.04670049 C0.000359662659,9.03122288 0,9.01565344 0,9 C0,8.44771525 0.44771525,8 1,8 C1.55228475,8 2,8.44771525 2,9 C2,10 5,14 9,14 C13,14 16,10 16,9 Z" id="Combined-Shape"></path>
        </g>
    </g>
</svg>