<?xml version="1.0" encoding="UTF-8"?>
<svg width="24px" height="24px" viewBox="0 0 24 24" version="1.1" xmlns="http://www.w3.org/2000/svg" xmlns:xlink="http://www.w3.org/1999/xlink">
    <!-- Generator: Sketch 48.2 (47327) - http://www.bohemiancoding.com/sketch -->
    <title>eye</title>
    <desc>Created with Sketch.</desc>
    <defs></defs>
    <g id="Symbols" stroke="none" stroke-width="1" fill="none" fill-rule="evenodd">
        <g id="eye" fill="#010101">
            <path d="M12,21 C6,21 2.4492936e-16,15 0,12 C0,9 6,3 12,3 C18,3 24,9 24,12 C24,15 18,21 12,21 Z M12,19 C17,19 22,14 22,12 C22,10 17,5 12,5 C7,5 2,10 2,12 C2,14 7,19 12,19 Z M12,18 C8.6862915,18 6,15.3137085 6,12 C6,8.6862915 8.6862915,6 12,6 C15.3137085,6 18,8.6862915 18,12 C18,15.3137085 15.3137085,18 12,18 Z M12,16 C14.209139,16 16,14.209139 16,12 C16,9.790861 14.209139,8 12,8 C9.790861,8 8,9.790861 8,12 C8,14.209139 9.790861,16 12,16 Z M11.7388704,14.9887926 C11.9050587,14.697166 12,14.3596704 12,14 C12,12.8954305 11.1045695,12 10,12 C9.64032963,12 9.30283399,12.0949413 9.01120735,12.2611296 C9.00378716,12.1750737 9,12.0879791 9,12 C9,10.3431458 10.3431458,9 12,9 C13.6568542,9 15,10.3431458 15,12 C15,13.6568542 13.6568542,15 12,15 C11.9120209,15 11.8249263,14.9962128 11.7388704,14.9887926 Z" id="Combined-Shape"></path>
        </g>
    </g>
</svg>