<?xml version="1.0" encoding="UTF-8"?>
<svg width="18px" height="18px" viewBox="0 0 18 18" version="1.1" xmlns="http://www.w3.org/2000/svg" xmlns:xlink="http://www.w3.org/1999/xlink">
    <!-- Generator: Sketch 48.2 (47327) - http://www.bohemiancoding.com/sketch -->
    <title>eye</title>
    <desc>Created with Sketch.</desc>
    <defs></defs>
    <g id="Symbols" stroke="none" stroke-width="1" fill="none" fill-rule="evenodd">
        <g id="eye" fill="#010101">
            <path d="M9,16 C3.5,16 1.18090941e-16,10.5 0,9 C0,7.5 4,2 9,2 C14,2 18,7.5 18,9 C18,10.5 14.5,16 9,16 Z M9,14.5 C13,14.5 16.5,10 16.5,9 C16.5,8 13,3.5 9,3.5 C5,3.5 1.5,8 1.5,9 C1.5,10 5,14.5 9,14.5 Z M9,13.5 C6.51471863,13.5 4.5,11.4852814 4.5,9 C4.5,6.51471863 6.51471863,4.5 9,4.5 C11.4852814,4.5 13.5,6.51471863 13.5,9 C13.5,11.4852814 11.4852814,13.5 9,13.5 Z M9,12 C10.6568542,12 12,10.6568542 12,9 C12,7.34314575 10.6568542,6 9,6 C7.34314575,6 6,7.34314575 6,9 C6,10.6568542 7.34314575,12 9,12 Z M8.91526882,10.9982376 C8.97014837,10.8423464 9,10.6746593 9,10.5 C9,9.67157288 8.32842712,9 7.5,9 C7.32534067,9 7.15765357,9.02985163 7.00176241,9.08473118 C7.00059135,9.05663333 7,9.02838573 7,9 C7,7.8954305 7.8954305,7 9,7 C10.1045695,7 11,7.8954305 11,9 C11,10.1045695 10.1045695,11 9,11 C8.97161427,11 8.94336667,10.9994086 8.91526882,10.9982376 Z" id="Combined-Shape"></path>
        </g>
    </g>
</svg>