<?xml version="1.0" encoding="UTF-8"?>
<svg width="24px" height="24px" viewBox="0 0 24 24" version="1.1" xmlns="http://www.w3.org/2000/svg" xmlns:xlink="http://www.w3.org/1999/xlink">
    <g>
        <path d="M12.5,19.3103448 C14.4186091,19.3103448 16.3978128,18.6578844 17.7241379,17.4482759 C19.261251,16.0464287 20,13.9247029 20,11.6551724 C20,11.2034189 19.9648249,10.7560422 19.8965344,10.317873 C19.8892871,10.2713724 12.6551724,10.3178731 12.6551724,10.3178731 L12.6551724,13.3103448 L16.7931034,13.3103448 C16.7931034,13.3103448 16.7931034,13.7241379 16.152466,14.6387926 C15.5118285,15.5534473 16.0960194,14.7234506 16.0689655,14.7586207 C15.0344828,16.1034483 13.4062279,16.3432986 12.5,16.3103448 C10.9560189,16.2542001 9.77532892,15.3885431 9.03448276,14.3448276 C8.41029952,13.4654686 8.10344828,12.4788639 8.10344828,11.5517241 C8.10344828,9.12797758 9.96551724,7 12.3448276,7 C14.7241379,7 15.6551724,8.13793103 15.6551724,8.13793103 L17.7564287,5.94583588 C17.7564287,5.94583588 17.1385866,5.37544335 16.7931034,5.13793103 C15.597816,4.31619625 14.0495187,4 12.5,4 C8.35786438,4 5,7.42733743 5,11.6551724 C5,15.8830074 8.35786438,19.3103448 12.5,19.3103448 Z"></path>
    </g>
</svg>