<?xml version="1.0" encoding="UTF-8"?>
<svg width="18px" height="18px" viewBox="0 0 18 18" version="1.1" xmlns="http://www.w3.org/2000/svg" xmlns:xlink="http://www.w3.org/1999/xlink">
    <!-- Generator: Sketch 48.2 (47327) - http://www.bohemiancoding.com/sketch -->
    <title>google</title>
    <desc>Created with Sketch.</desc>
    <defs></defs>
    <g id="Symbols" stroke="none" stroke-width="1" fill="none" fill-rule="evenodd">
        <g id="google" fill="#010101">
            <path d="M9.5,16.3103448 C11.4186091,16.3103448 13.3978128,15.6578844 14.7241379,14.4482759 C16.261251,13.0464287 17,10.9247029 17,8.65517241 C17,8.20341892 16.9648249,7.75604216 16.8965344,7.317873 C16.8892871,7.2713724 9.65517241,7.31787307 9.65517241,7.31787307 L9.65517241,10.3103448 L13.7931034,10.3103448 C13.7931034,10.3103448 13.7931034,10.7241379 13.152466,11.6387926 C12.5118285,12.5534473 13.0960194,11.7234506 13.0689655,11.7586207 C12.0344828,13.1034483 10.4062279,13.3432986 9.5,13.3103448 C7.9560189,13.2542001 6.77532892,12.3885431 6.03448276,11.3448276 C5.41029952,10.4654686 5.10344828,9.47886394 5.10344828,8.55172414 C5.10344828,6.12797758 6.96551724,4 9.34482759,4 C11.7241379,4 12.6551724,5.13793103 12.6551724,5.13793103 L14.7564287,2.94583588 C14.7564287,2.94583588 14.1385866,2.37544335 13.7931034,2.13793103 C12.597816,1.31619625 11.0495187,1 9.5,1 C5.35786438,1 2,4.42733743 2,8.65517241 C2,12.8830074 5.35786438,16.3103448 9.5,16.3103448 Z" id="Path"></path>
        </g>
    </g>
</svg>