<?xml version="1.0" encoding="UTF-8"?>
<svg width="18px" height="18px" viewBox="0 0 18 18" version="1.1" xmlns="http://www.w3.org/2000/svg" xmlns:xlink="http://www.w3.org/1999/xlink">
    <!-- Generator: Sketch 48.2 (47327) - http://www.bohemiancoding.com/sketch -->
    <title>help</title>
    <desc>Created with Sketch.</desc>
    <defs></defs>
    <g id="Symbols" stroke="none" stroke-width="1" fill="none" fill-rule="evenodd">
        <g id="help" fill="#010101">
            <path d="M9.5,9 C10.8807119,9 12,7.88071187 12,6.5 C12,5.11928813 10.8807119,4 9.5,4 C8.11928813,4 7,5.11928813 7,6.5 C7,7.05228475 6.55228475,7.5 6,7.5 C5.44771525,7.5 5,7.05228475 5,6.5 C5,4.01471863 7.01471863,2 9.5,2 C11.9852814,2 14,4.01471863 14,6.5 C14,8.81627683 12.2499752,10.7238135 10,10.9725356 L10,12 C10,12.5522847 9.55228475,13 9,13 C8.44771525,13 8,12.5522847 8,12 L8,10 C8,9.44771525 8.44771525,9 9,9 L9.5,9 Z M9,16 C8.44771525,16 8,15.5522847 8,15 C8,14.4477153 8.44771525,14 9,14 C9.55228475,14 10,14.4477153 10,15 C10,15.5522847 9.55228475,16 9,16 Z" id="Combined-Shape"></path>
        </g>
    </g>
</svg>