<?xml version="1.0" encoding="UTF-8"?>
<svg width="24px" height="24px" viewBox="0 0 24 24" version="1.1" xmlns="http://www.w3.org/2000/svg" xmlns:xlink="http://www.w3.org/1999/xlink">
    <!-- Generator: Sketch 48.2 (47327) - http://www.bohemiancoding.com/sketch -->
    <title>help</title>
    <desc>Created with Sketch.</desc>
    <defs></defs>
    <g id="Symbols" stroke="none" stroke-width="1" fill="none" fill-rule="evenodd">
        <g id="help" fill="#050505">
            <path d="M10.5,13.5001649 C10.5,12.6716467 11.1657972,12 12,12 C13.6568542,12 15,10.6568542 15,9 C15,7.34314575 13.6568542,6 12,6 C10.3431458,6 9,7.34314575 9,9 C9,9.82842712 8.32842712,10.5 7.5,10.5 C6.67157288,10.5 6,9.82842712 6,9 C6,5.6862915 8.6862915,3 12,3 C15.3137085,3 18,5.6862915 18,9 C18,11.7957591 16.0878408,14.1449096 13.5,14.8109738 L13.5,15.4998351 C13.5,16.3283533 12.8342028,17 12,17 C11.1715729,17 10.5,16.3256778 10.5,15.4998351 L10.5,13.5001649 Z M12,21 C11.1715729,21 10.5,20.3284271 10.5,19.5 C10.5,18.6715729 11.1715729,18 12,18 C12.8284271,18 13.5,18.6715729 13.5,19.5 C13.5,20.3284271 12.8284271,21 12,21 Z" id="Combined-Shape"></path>
        </g>
    </g>
</svg>