<?xml version="1.0" encoding="UTF-8"?>
<svg width="24px" height="24px" viewBox="0 0 24 24" version="1.1" xmlns="http://www.w3.org/2000/svg" xmlns:xlink="http://www.w3.org/1999/xlink">
    <!-- Generator: Sketch 48.2 (47327) - http://www.bohemiancoding.com/sketch -->
    <title>import</title>
    <desc>Created with Sketch.</desc>
    <defs></defs>
    <g id="Symbols" stroke="none" stroke-width="1" fill="none" fill-rule="evenodd">
        <g id="import" fill="#010101">
            <path d="M14,8.58675316 L20.2876518,2.29910136 C20.6867985,1.89995468 21.317288,1.90263012 21.7078123,2.29315441 C22.1010593,2.68640137 22.0956741,3.31950622 21.7018654,3.71331493 L15.4133374,10.0018428 L21.0066023,10.0018428 C21.5552407,10.0018428 22,10.4457077 22,11.0018428 C22,11.5541276 21.5446944,12.0018428 21.0081969,12.0018428 L13.9907951,12.0018428 C12.8913093,12.0018428 12,11.1036305 12,10.0110477 L12,2.99364595 C12,2.44588822 12.4438648,2.00184284 13,2.00184284 C13.5522847,2.00184284 14,2.44678913 14,2.99524053 L14,8.58675316 Z M18.9991283,20 C19.5518945,20 20,19.5562834 20,19.0001925 L20,15.9998075 C20,15.4476291 20.4438648,15 21,15 C21.5522847,15 22,15.4378814 22,16.0029293 L22,18.9907455 C22,20.6527109 20.656688,22 19.0057979,22 L4.99420208,22 C3.34054993,22 2,20.656688 2,19.0057979 L2,4.99420208 C2,3.34054993 3.34967041,2 5.00925446,2 L7.99707067,2 C8.55097324,2 9,2.44386482 9,3 C9,3.55228475 8.55628335,4 8.00019251,4 L4.99980749,4 C4.44762906,4 4,4.44463086 4,5.00087166 L4,18.9991283 C4,19.5518945 4.44463086,20 5.00087166,20 L18.9991283,20 Z" id="Combined-Shape"></path>
        </g>
    </g>
</svg>