<?xml version="1.0" encoding="UTF-8"?>
<svg width="18px" height="18px" viewBox="0 0 18 18" version="1.1" xmlns="http://www.w3.org/2000/svg" xmlns:xlink="http://www.w3.org/1999/xlink">
    <!-- Generator: Sketch 48.2 (47327) - http://www.bohemiancoding.com/sketch -->
    <title>import</title>
    <desc>Created with Sketch.</desc>
    <defs></defs>
    <g id="Symbols" stroke="none" stroke-width="1" fill="none" fill-rule="evenodd">
        <g id="import" fill="#010101">
            <path d="M10,6.58675316 L16.2876518,0.299101364 C16.6867985,-0.100045324 17.317288,-0.0973698797 17.7078123,0.293154412 C18.1010593,0.686401367 18.0956741,1.31950622 17.7018654,1.71331493 L11.4133374,8.00184284 L17.0066023,8.00184284 C17.5552407,8.00184284 18,8.44570767 18,9.00184284 C18,9.55412759 17.5446944,10.0018428 17.0081969,10.0018428 L9.99079514,10.0018428 C8.89130934,10.0018428 8,9.10363046 8,8.01104771 L8,0.993645954 C8,0.445888222 8.44386482,0.00184284443 9,0.00184284443 C9.55228475,0.00184284443 10,0.446789133 10,0.995240527 L10,6.58675316 Z M14.9931545,16 C15.5492199,16 16,15.5566468 16,14.9906311 L16,13.0093689 C16,12.4519098 16.4438648,12 17,12 C17.5522847,12 18,12.4509752 18,12.990778 L18,15 C18,16.6568542 16.6470745,18 15.0074602,18 L2.99253976,18 C1.33980569,18 0,16.6470745 0,15.0074602 L0,2.99253976 C0,1.33980569 1.34651712,0 3,0 L5.00922203,0 C5.55641359,0 6,0.443864822 6,1 C6,1.55228475 5.55664682,2 4.9906311,2 L3.0093689,2 C2.45190985,2 2,2.44994876 2,3.00684547 L2,14.9931545 C2,15.5492199 2.44994876,16 3.00684547,16 L14.9931545,16 Z" id="Combined-Shape"></path>
        </g>
    </g>
</svg>