<?xml version="1.0" encoding="UTF-8"?>
<svg width="18px" height="18px" viewBox="0 0 18 18" version="1.1" xmlns="http://www.w3.org/2000/svg" xmlns:xlink="http://www.w3.org/1999/xlink">
    <!-- Generator: Sketch 48.2 (47327) - http://www.bohemiancoding.com/sketch -->
    <title>italic</title>
    <desc>Created with Sketch.</desc>
    <defs></defs>
    <g id="Symbols" stroke="none" stroke-width="1" fill="none" fill-rule="evenodd">
        <g id="italic" fill="#010101">
            <path d="M9.92,3.3 C9.6133318,3.3 9.3466678,3.1866678 9.12,2.96 C8.8933322,2.7333322 8.78,2.4666682 8.78,2.16 C8.78,1.8533318 8.8933322,1.5866678 9.12,1.36 C9.3466678,1.1333322 9.6133318,1.02 9.92,1.02 C10.2266682,1.02 10.4933322,1.1333322 10.72,1.36 C10.9466678,1.5866678 11.06,1.8533318 11.06,2.16 C11.06,2.4666682 10.9466678,2.7333322 10.72,2.96 C10.4933322,3.1866678 10.2266682,3.3 9.92,3.3 Z M8.5,15.2 C8.033331,15.2 7.7133342,15.0200018 7.54,14.66 C7.3666658,14.2999982 7.3333328,13.820003 7.44,13.22 L8.5,7.2 L6.76,6.52 L6.76,6.4 L10.22,5.8 L10.28,5.8 L9.06,12.62 C8.993333,13.020002 8.9799998,13.3066658 9.02,13.48 C9.0600002,13.6533342 9.1733324,13.74 9.36,13.74 C9.5866678,13.74 9.833332,13.6166679 10.1,13.37 C10.366668,13.1233321 10.6199988,12.7466692 10.86,12.24 L11.12,12.36 C10.7333314,13.360005 10.3166689,14.0833311 9.87,14.53 C9.4233311,14.9766689 8.966669,15.2 8.5,15.2 Z" id="i"></path>
        </g>
    </g>
</svg>