<?xml version="1.0" encoding="UTF-8"?>
<svg width="18px" height="18px" viewBox="0 0 18 18" version="1.1" xmlns="http://www.w3.org/2000/svg" xmlns:xlink="http://www.w3.org/1999/xlink">
    <!-- Generator: Sketch 48.2 (47327) - http://www.bohemiancoding.com/sketch -->
    <title>italic</title>
    <desc>Created with Sketch.</desc>
    <defs></defs>
    <g id="Symbols" stroke="none" stroke-width="1" fill="none" fill-rule="evenodd">
        <g id="italic" fill="#333333">
            <path d="M8.08,10 C8.2666676,9.4799974 8.3999996,9.0600016 8.48,8.74 C8.5600004,8.4199984 8.6,8.1666676 8.6,7.98 C8.6,7.7933324 8.5700003,7.6700003 8.51,7.61 C8.4499997,7.5499997 8.386667,7.52 8.32,7.52 C8.1733326,7.52 8.0133342,7.5899993 7.84,7.73 C7.6666658,7.8700007 7.4933342,8.0333324 7.32,8.22 C7.1466658,8.4066676 6.993334,8.5933324 6.86,8.78 C6.726666,8.9666676 6.6333336,9.1133328 6.58,9.22 L6,8.86 C6.1600008,8.5666652 6.3833319,8.2400018 6.67,7.88 C6.9566681,7.5199982 7.2799982,7.1866682 7.64,6.88 C8.0000018,6.5733318 8.3733314,6.3166677 8.76,6.11 C9.1466686,5.9033323 9.5133316,5.8 9.86,5.8 C10.193335,5.8 10.4433325,5.8966657 10.61,6.09 C10.7766675,6.2833343 10.86,6.6333308 10.86,7.14 C10.86,7.5266686 10.7433345,8.0466634 10.51,8.7 C10.2766655,9.3533366 9.9733352,10.1933282 9.6,11.22 L8.86,13.24 C8.8333332,13.306667 8.7966669,13.4099993 8.75,13.55 C8.7033331,13.6900007 8.6566669,13.8366659 8.61,13.99 C8.5633331,14.1433341 8.5233335,14.2933326 8.49,14.44 C8.4566665,14.5866674 8.44,14.7066662 8.44,14.8 C8.44,14.9200006 8.473333,15.0266662 8.54,15.12 C8.606667,15.2133338 8.7133326,15.26 8.86,15.26 C9.060001,15.26 9.2666656,15.1766675 9.48,15.01 C9.6933344,14.8433325 9.899999,14.6466678 10.1,14.42 C10.300001,14.1933322 10.4799992,13.9633345 10.64,13.73 C10.8000008,13.4966655 10.9199996,13.313334 11,13.18 L11.6,13.52 C11.4399992,13.8400016 11.2233347,14.1933314 10.95,14.58 C10.6766653,14.9666686 10.3666684,15.3233317 10.02,15.65 C9.6733316,15.9766683 9.2933354,16.2499989 8.88,16.47 C8.4666646,16.6900011 8.0400022,16.8 7.6,16.8 C7.2133314,16.8 6.9233343,16.700001 6.73,16.5 C6.5366657,16.299999 6.44,15.966669 6.44,15.5 C6.44,15.1133314 6.5033327,14.6966689 6.63,14.25 C6.7566673,13.8033311 6.9399988,13.2400034 7.18,12.56 L8.08,10 Z M11.02,2.52 C10.686665,2.52 10.3966679,2.4066678 10.15,2.18 C9.9033321,1.9533322 9.78,1.6600018 9.78,1.3 C9.78,0.9399982 9.8999988,0.6333346 10.14,0.38 C10.3800012,0.1266654 10.6733316,0 11.02,0 C11.3933352,0 11.6999988,0.1266654 11.94,0.38 C12.1800012,0.6333346 12.3,0.9333316 12.3,1.28 C12.3,1.6266684 12.1733346,1.9199988 11.92,2.16 C11.6666654,2.4000012 11.3666684,2.52 11.02,2.52 Z" id="i"></path>
        </g>
    </g>
</svg>