<?xml version="1.0" encoding="UTF-8"?>
<svg width="24px" height="24px" viewBox="0 0 24 24" version="1.1" xmlns="http://www.w3.org/2000/svg" xmlns:xlink="http://www.w3.org/1999/xlink">
    <g>
        <path d="M6,5 L18,5 C19.6568542,5 21,6.34314575 21,8 L21,16 C21,17.6568542 19.6568542,19 18,19 L6,19 C4.34314575,19 3,17.6568542 3,16 L3,8 C3,6.34314575 4.34314575,5 6,5 Z M6,7 C5.44771525,7 5,7.44771525 5,8 L5,16 C5,16.5522847 5.44771525,17 6,17 L18,17 C18.5522847,17 19,16.5522847 19,16 L19,8 C19,7.44771525 18.5522847,7 18,7 L6,7 Z M9.70710678,13.2928932 C10.0976311,13.6834175 10.0976311,14.3165825 9.70710678,14.7071068 C9.31658249,15.0976311 8.68341751,15.0976311 8.29289322,14.7071068 L6.29289322,12.7071068 C5.90236893,12.3165825 5.90236893,11.6834175 6.29289322,11.2928932 L8.29289322,9.29289322 C8.68341751,8.90236893 9.31658249,8.90236893 9.70710678,9.29289322 C10.0976311,9.68341751 10.0976311,10.3165825 9.70710678,10.7071068 L8.41421356,12 L9.70710678,13.2928932 Z M14.2928932,10.7071068 C13.9023689,10.3165825 13.9023689,9.68341751 14.2928932,9.29289322 C14.6834175,8.90236893 15.3165825,8.90236893 15.7071068,9.29289322 L17.7071068,11.2928932 C18.0976311,11.6834175 18.0976311,12.3165825 17.7071068,12.7071068 L15.7071068,14.7071068 C15.3165825,15.0976311 14.6834175,15.0976311 14.2928932,14.7071068 C13.9023689,14.3165825 13.9023689,13.6834175 14.2928932,13.2928932 L15.5857864,12 L14.2928932,10.7071068 Z"></path>
    </g>
</svg>