<?xml version="1.0" encoding="UTF-8"?>
<svg width="18px" height="18px" viewBox="0 0 18 18" version="1.1" xmlns="http://www.w3.org/2000/svg" xmlns:xlink="http://www.w3.org/1999/xlink">
    <!-- Generator: Sketch 48.2 (47327) - http://www.bohemiancoding.com/sketch -->
    <title>link</title>
    <desc>Created with Sketch.</desc>
    <defs></defs>
    <g id="Symbols" stroke="none" stroke-width="1" fill="none" fill-rule="evenodd">
        <g id="link" fill="#010101">
            <path d="M9.54594155,10.0459415 C10.650511,10.0459415 11.5459415,9.15051105 11.5459415,8.04594155 L11.5459415,4.04594155 C11.5459415,2.94137205 10.650511,2.04594155 9.54594155,2.04594155 C8.44137205,2.04594155 7.54594155,2.94137205 7.54594155,4.04594155 L7.54594155,6.46198523 C6.74969043,6.80988214 6.06156322,7.35916565 5.54594155,8.04545409 L5.54594155,4.04594155 C5.54594155,1.83680255 7.33680255,0.045941546 9.54594155,0.045941546 C11.7550805,0.045941546 13.5459415,1.83680255 13.5459415,4.04594155 L13.5459415,8.04594155 C13.5459415,10.2550803 11.7550809,12.0459411 9.54594228,12.0459415 C8.9936568,12.0459415 8.54594155,11.5982263 8.54594155,11.0459415 C8.54594155,10.4936568 8.9936568,10.0459415 9.54594155,10.0459415 Z M9.54594155,9.04594155 C8.44137205,9.04594155 7.54594155,9.94137205 7.54594155,11.0459415 L7.54594155,15.0459415 C7.54594155,16.150511 8.44137205,17.0459415 9.54594155,17.0459415 C10.650511,17.0459415 11.5459415,16.150511 11.5459415,15.0459415 L11.5459415,12.6298979 C12.3421927,12.282001 13.0303199,11.7327174 13.5459415,11.046429 L13.5459415,15.0459415 C13.5459415,17.2550805 11.7550805,19.0459415 9.54594155,19.0459415 C7.33680255,19.0459415 5.54594155,17.2550805 5.54594155,15.0459415 L5.54594155,11.0459415 C5.54594155,8.83680279 7.33680215,7.04594194 9.54594081,7.04594155 C10.0982263,7.04594155 10.5459415,7.4936568 10.5459415,8.04594155 C10.5459415,8.5982263 10.0982263,9.04594155 9.54594155,9.04594155 Z" id="Combined-Shape" transform="translate(9.545942, 9.545942) rotate(45.000000) translate(-9.545942, -9.545942) "></path>
        </g>
    </g>
</svg>