<?xml version="1.0" encoding="UTF-8"?>
<svg width="24px" height="24px" viewBox="0 0 24 24" version="1.1" xmlns="http://www.w3.org/2000/svg" xmlns:xlink="http://www.w3.org/1999/xlink">
    <!-- Generator: Sketch 48.2 (47327) - http://www.bohemiancoding.com/sketch -->
    <title>location</title>
    <desc>Created with Sketch.</desc>
    <defs></defs>
    <g id="Symbols" stroke="none" stroke-width="1" fill="none" fill-rule="evenodd">
        <g id="location" fill="#010101">
            <path d="M13.6174617,18.8579435 C13.4944037,19.0271454 13.3455585,19.1759907 13.1763565,19.2990487 C12.2830591,19.9487305 11.0322273,19.751241 10.3825408,18.857947 C7.46084695,14.8406856 6,11.8880366 6,10 C6,6.6862915 8.6862915,4 12,4 C15.3137085,4 18,6.6862915 18,10 C18,11.888036 16.5391539,14.8406839 13.6174617,18.8579435 Z M12,12 C13.1045695,12 14,11.1045695 14,10 C14,8.8954305 13.1045695,8 12,8 C10.8954305,8 10,8.8954305 10,10 C10,11.1045695 10.8954305,12 12,12 Z" id="Combined-Shape"></path>
        </g>
    </g>
</svg>