<?xml version="1.0" encoding="UTF-8"?>
<svg width="24px" height="24px" viewBox="0 0 24 24" version="1.1" xmlns="http://www.w3.org/2000/svg" xmlns:xlink="http://www.w3.org/1999/xlink">
    <!-- Generator: Sketch 48.2 (47327) - http://www.bohemiancoding.com/sketch -->
    <title>lock</title>
    <desc>Created with Sketch.</desc>
    <defs></defs>
    <g id="Symbols" stroke="none" stroke-width="1" fill="none" fill-rule="evenodd">
        <g id="lock" fill="#010101">
            <path d="M6,10 L6,7 C6,3.6862915 8.6862915,1 12,1 C15.3137085,1 18,3.6862915 18,7 L18,10 L19,10 C19.5522847,10 20,10.4477153 20,11 L20,21 C20,21.5522847 19.5522847,22 19,22 L5,22 C4.44771525,22 4,21.5522847 4,21 L4,11 C4,10.4477153 4.44771525,10 5,10 L6,10 Z M8,7 L8,10 L16,10 L16,7 C16,4.790861 14.209139,3 12,3 C9.790861,3 8,4.790861 8,7 Z M13,16.7324356 L13,18 C13,18.5522847 12.5522847,19 12,19 C11.4477153,19 11,18.5522847 11,18 L11,16.7324356 C10.4021986,16.3866262 10,15.7402824 10,15 C10,13.8954305 10.8954305,13 12,13 C13.1045695,13 14,13.8954305 14,15 C14,15.7402824 13.5978014,16.3866262 13,16.7324356 Z" id="Combined-Shape"></path>
        </g>
    </g>
</svg>