<?xml version="1.0" encoding="UTF-8"?>
<svg width="18px" height="18px" viewBox="0 0 18 18" version="1.1" xmlns="http://www.w3.org/2000/svg" xmlns:xlink="http://www.w3.org/1999/xlink">
    <!-- Generator: Sketch 48.2 (47327) - http://www.bohemiancoding.com/sketch -->
    <title>lock</title>
    <desc>Created with Sketch.</desc>
    <defs></defs>
    <g id="Symbols" stroke="none" stroke-width="1" fill="none" fill-rule="evenodd">
        <g id="lock" fill="#010101">
            <path d="M5,6 L5,8 L13,8 L13,6 C13,3.790861 11.209139,2 9,2 C6.790861,2 5,3.790861 5,6 Z M3,6 C3,2.6862915 5.6862915,0 9,0 C12.3137085,0 15,2.6862915 15,6 L15,8 C15.5522847,8 16,8.44771525 16,9 L16,17 C16,17.5522847 15.5522847,18 15,18 L3,18 C2.44771525,18 2,17.5522847 2,17 L2,9 C2,8.44771525 2.44771525,8 3,8 L3,6 Z M10,13.7324356 C10.5978014,13.3866262 11,12.7402824 11,12 C11,10.8954305 10.1045695,10 9,10 C7.8954305,10 7,10.8954305 7,12 C7,12.7402824 7.40219863,13.3866262 8,13.7324356 L8,15 C8,15.5522847 8.44771525,16 9,16 C9.55228475,16 10,15.5522847 10,15 L10,13.7324356 Z" id="Combined-Shape"></path>
        </g>
    </g>
</svg>