<?xml version="1.0" encoding="UTF-8"?>
<svg width="24px" height="24px" viewBox="0 0 24 24" version="1.1" xmlns="http://www.w3.org/2000/svg" xmlns:xlink="http://www.w3.org/1999/xlink">
    <!-- Generator: Sketch 48.2 (47327) - http://www.bohemiancoding.com/sketch -->
    <title>love</title>
    <desc>Created with Sketch.</desc>
    <defs></defs>
    <g id="Symbols" stroke="none" stroke-width="1" fill="none" fill-rule="evenodd">
        <g id="love" fill="#010101">
            <path d="M12.7072691,4.80899403 L13.2588454,4.25735931 C15.6017426,1.91421356 19.4003296,1.91421356 21.7432268,4.25735931 C24.086124,6.60050506 24.086124,10.3994949 21.7432268,12.7426407 L20.4845813,14.0014197 L13.4277796,21.0858599 C12.6482399,21.8684145 11.3819123,21.8708585 10.5993577,21.0913189 C10.5993,21.0912614 10.5992423,21.0912039 10.5991846,21.0911464 L3.5,14.0172398 L2.25717293,12.7426407 C-0.0857243103,10.3994949 -0.0857243103,6.60050506 2.25717293,4.25735931 C4.60007017,1.91421356 8.39865713,1.91421356 10.7415544,4.25735931 L11.2930556,4.80906902 C11.6835592,5.19961402 12.3167241,5.1996476 12.7072691,4.80914401 C12.7072941,4.80911902 12.7073191,4.80909402 12.7073441,4.80906902 L12.7072691,4.80899403 Z M12.7073066,18.9507788 L20.3293358,11.3287497 C21.8914329,9.76665249 21.8914329,7.23399258 20.3293358,5.67189541 C18.7672386,4.10979824 16.2345787,4.10979824 14.6724815,5.67189541 L13.4141443,6.93023267 C12.6422465,7.71993407 11.3763202,7.73436674 10.5866188,6.96246895 C10.5865576,6.96240909 10.5864963,6.96234922 10.5864351,6.96228935 L10.5701361,6.94635374 L9.32791821,5.67189541 C7.76582104,4.10979824 5.23316112,4.10979824 3.67106396,5.67189541 C2.10896679,7.23399258 2.10896679,9.76665249 3.67106396,11.3287497 L11.2930931,18.9507788 C11.6836174,19.3413031 12.3167824,19.3413031 12.7073066,18.9507788 Z" id="Combined-Shape"></path>
        </g>
    </g>
</svg>