<?xml version="1.0" encoding="UTF-8"?>
<svg width="18px" height="18px" viewBox="0 0 18 18" version="1.1" xmlns="http://www.w3.org/2000/svg" xmlns:xlink="http://www.w3.org/1999/xlink">
    <!-- Generator: Sketch 48.2 (47327) - http://www.bohemiancoding.com/sketch -->
    <title>love</title>
    <desc>Created with Sketch.</desc>
    <defs></defs>
    <g id="Symbols" stroke="none" stroke-width="1" fill="none" fill-rule="evenodd">
        <g id="love" fill="#010101">
            <path d="M16.1066017,10.5355339 L10.4497475,16.1923882 C9.66869888,16.9734367 8.40236893,16.9734367 7.62132034,16.1923882 L1.96446609,10.5355339 C0.0118446353,8.58291245 0.0118446353,5.41708755 1.96446609,3.46446609 C3.91708755,1.51184464 7.08291245,1.51184464 9.03553391,3.46446609 C10.9881554,1.51184464 14.1539803,1.51184464 16.1066017,3.46446609 C18.0592232,5.41708755 18.0592232,8.58291245 16.1066017,10.5355339 Z M10.4497473,4.87867978 L9.74264069,5.58578644 C9.3521164,5.97631073 8.71895142,5.97631073 8.32842712,5.58578644 L7.62132047,4.87867978 C6.44974747,3.70710678 4.55025253,3.70710678 3.37867966,4.87867966 C2.20710678,6.05025253 2.20710678,7.94974747 3.37867966,9.12132034 L8.32842712,14.0710678 C8.71895142,14.4615921 9.3521164,14.4615921 9.74264069,14.0710678 L14.6923882,9.12132034 C15.863961,7.94974747 15.863961,6.05025253 14.6923882,4.87867966 C13.5208153,3.70710678 11.6213203,3.70710678 10.4497473,4.87867978 Z" id="Combined-Shape"></path>
        </g>
    </g>
</svg>