<?xml version="1.0" encoding="UTF-8"?>
<svg width="18px" height="18px" viewBox="0 0 18 18" version="1.1" xmlns="http://www.w3.org/2000/svg" xmlns:xlink="http://www.w3.org/1999/xlink">
    <!-- Generator: Sketch 48.2 (47327) - http://www.bohemiancoding.com/sketch -->
    <title>person</title>
    <desc>Created with Sketch.</desc>
    <defs></defs>
    <g id="Symbols" stroke="none" stroke-width="1" fill="none" fill-rule="evenodd">
        <g id="person" fill="#010101">
            <path d="M9,18 C4.02943725,18 0,13.9705627 0,9 C0,4.02943725 4.02943725,0 9,0 C13.9705627,0 18,4.02943725 18,9 C18,13.9705627 13.9705627,18 9,18 Z M15.9693707,8.34082807 C15.0679253,8.76369911 14.0615582,9 13,9 C10.6014679,9 8.48469103,7.79366255 7.22329689,5.95461517 C6.19248252,7.77301794 4.23952977,9 2,9 C2,12.8659932 5.13400675,16 9,16 C12.8659932,16 16,12.8659932 16,9 C16,8.77770363 15.989638,8.55782744 15.9693707,8.34082807 Z M6,12 C5.44771525,12 5,11.5522847 5,11 C5,10.4477153 5.44771525,10 6,10 C6.55228475,10 7,10.4477153 7,11 C7,11.5522847 6.55228475,12 6,12 Z M12,12 C11.4477153,12 11,11.5522847 11,11 C11,10.4477153 11.4477153,10 12,10 C12.5522847,10 13,10.4477153 13,11 C13,11.5522847 12.5522847,12 12,12 Z" id="Combined-Shape"></path>
        </g>
    </g>
</svg>