<?xml version="1.0" encoding="UTF-8"?>
<svg width="18px" height="18px" viewBox="0 0 18 18" version="1.1" xmlns="http://www.w3.org/2000/svg" xmlns:xlink="http://www.w3.org/1999/xlink">
    <!-- Generator: Sketch 48.2 (47327) - http://www.bohemiancoding.com/sketch -->
    <title>photo</title>
    <desc>Created with Sketch.</desc>
    <defs></defs>
    <g id="Symbols" stroke="none" stroke-width="1" fill="none" fill-rule="evenodd">
        <g id="photo" fill="#010101">
            <path d="M15.9716308,13.2374825 C15.9901716,13.1613613 16,13.0818284 16,13 L16,3 C16,2.44771525 15.5522847,2 15,2 L3,2 C2.44771525,2 2,2.44771525 2,3 L2,13 C2,13.5522847 2.44771525,14 3,14 L3.41745874,14 L5.74684758,11.0117605 C6.08638993,10.5761811 6.71475029,10.4983276 7.15032971,10.83787 C7.21522675,10.8884584 7.27363177,10.9468635 7.32422023,11.0117605 L8.11997276,12.0325858 L10.7724625,8.90092111 C11.1294119,8.47948839 11.7604153,8.42721435 12.181848,8.78416379 C12.2239192,8.8197977 12.2629715,8.8588499 12.2986054,8.90092111 L15.9716308,13.2374825 Z M2,0 L16,0 C17.1045695,0 18,0.8954305 18,2 L18,16 C18,17.1045695 17.1045695,18 16,18 L2,18 C0.8954305,18 0,17.1045695 0,16 L0,2 C0,0.8954305 0.8954305,0 2,0 Z M5.5,7 C4.67157288,7 4,6.32842712 4,5.5 C4,4.67157288 4.67157288,4 5.5,4 C6.32842712,4 7,4.67157288 7,5.5 C7,6.32842712 6.32842712,7 5.5,7 Z" id="Combined-Shape"></path>
        </g>
    </g>
</svg>