<?xml version="1.0" encoding="UTF-8"?>
<svg width="24px" height="24px" viewBox="0 0 24 24" version="1.1" xmlns="http://www.w3.org/2000/svg" xmlns:xlink="http://www.w3.org/1999/xlink">
    <!-- Generator: Sketch 48.2 (47327) - http://www.bohemiancoding.com/sketch -->
    <title>piggy-bank-solid</title>
    <desc>Created with Sketch.</desc>
    <defs></defs>
    <g id="Symbols" stroke="none" stroke-width="1" fill="none" fill-rule="evenodd">
        <g id="piggy-bank-solid" fill="#010101">
            <path d="M5.45864424,5.86152341 C5.16576591,5.3055013 5,4.672109 5,4 C5,1.790861 6.790861,0 9,0 C11.209139,0 13,1.790861 13,4 C13,4.01291899 12.9999388,4.02582368 12.9998165,4.03871378 C12.6705141,4.01309012 12.3370271,4 12,4 C9.54993002,4 7.28694687,4.69178477 5.45864424,5.86152341 Z M15.8939437,5.6685088 C15.9419971,5.63309524 15.9703448,5.61320843 15.9703448,5.61320843 C16.4037201,5.27454276 17.2060154,5 17.7458182,5 L20.7571271,5 C21.860544,5 22.2324801,5.73423005 21.6208688,6.658265 C21.6208688,6.658265 20.9314554,7.52352318 20.3907631,8.65132914 C20.3656816,8.69402705 20.3390793,8.73402237 20.3110352,8.77140758 C21.0682588,9.73108528 21.6015154,10.8291694 21.8472045,12.0115996 C21.8970206,12.0039617 21.9480476,12 22,12 C22.5522847,12 23,12.4477153 23,13 L23,15 C23,15.5522847 22.5522847,16 22,16 C21.8544175,16 21.716101,15.9688904 21.5913357,15.9129564 C21.1028687,17.3179588 20.1987413,18.5713425 19,19.5702179 L19,21.5 C19,22.8807119 17.8807119,24 16.5,24 C15.2298816,24 14.1809848,23.0528382 14.0211026,21.8263079 C13.3683448,21.9401869 12.6923901,22 12,22 C11.3076099,22 10.6316552,21.9401869 9.97889736,21.8263079 C9.81901525,23.0528382 8.77011837,24 7.5,24 C6.11928813,24 5,22.8807119 5,21.5 L5,19.5702179 C3.31992124,18.1702584 2.21855323,16.2703676 2.02914215,14.1538046 L0.799845994,13.2318325 C0.358103249,12.9005254 0,12.1880832 0,11.631948 C0,11.0796633 0.395154817,10.8467035 0.882796988,11.1055769 C0.882796988,11.1055769 1.83942253,11.6433377 2.21075902,11.7557072 C3.15733108,7.89798777 7.18051183,5 12,5 C13.381286,5 14.6971617,5.23804657 15.8939437,5.6685088 Z M16,12 C16.5522847,12 17,11.5522847 17,11 C17,10.4477153 16.5522847,10 16,10 C15.4477153,10 15,10.4477153 15,11 C15,11.5522847 15.4477153,12 16,12 Z" id="Combined-Shape"></path>
        </g>
    </g>
</svg>