<?xml version="1.0" encoding="UTF-8"?>
<svg width="24px" height="24px" viewBox="0 0 24 24" version="1.1" xmlns="http://www.w3.org/2000/svg" xmlns:xlink="http://www.w3.org/1999/xlink">
    <g>
        <path d="M11,14 L8,14 C7.44771525,14 7,13.5522847 7,13 C7,12.4477153 7.44771525,12 8,12 L8.5,12 L9,11.5 L9.06300874,11.5 C9.0218765,11.34019 9,11.1726498 9,11 L9,7 C9,5.8954305 9.8954305,5 11,5 L13,5 C14.1045695,5 15,5.8954305 15,7 L15,11 C15,11.1726498 14.9781235,11.34019 14.9369913,11.5 L15,11.5 L15.5,12 L16,12 C16.5522847,12 17,12.4477153 17,13 C17,13.5522847 16.5522847,14 16,14 L13,14 L13,18 C13,18.5522847 12.5522847,19 12,19 C11.4477153,19 11,18.5522847 11,18 L11,14 Z"></path>
    </g>
</svg>