<?xml version="1.0" encoding="UTF-8"?>
<svg width="18px" height="18px" viewBox="0 0 18 18" version="1.1" xmlns="http://www.w3.org/2000/svg" xmlns:xlink="http://www.w3.org/1999/xlink">
    <!-- Generator: Sketch 48.2 (47327) - http://www.bohemiancoding.com/sketch -->
    <title>quote</title>
    <desc>Created with Sketch.</desc>
    <defs></defs>
    <g id="Symbols" stroke="none" stroke-width="1" fill="none" fill-rule="evenodd">
        <g id="quote" fill="#333333">
            <path d="M12.854,6.924 C12.3259974,7.33466872 11.9190014,7.74899791 11.633,8.167 C11.3469986,8.58500209 11.204,8.9773315 11.204,9.344 C11.262667,9.31466652 11.3396662,9.29633337 11.435,9.289 C11.5303338,9.28166663 11.6146663,9.278 11.688,9.278 C12.025335,9.278 12.3076655,9.41366531 12.535,9.685 C12.7623345,9.95633469 12.876,10.289998 12.876,10.686 C12.876,11.1700024 12.7146683,11.5733317 12.392,11.896 C12.0693317,12.2186683 11.6660024,12.38 11.182,12.38 C10.6686641,12.38 10.2653348,12.1930019 9.972,11.819 C9.6786652,11.4449981 9.532,10.9426698 9.532,10.312 C9.532,9.56399626 9.75933106,8.823337 10.214,8.09 C10.6686689,7.356663 11.3359956,6.6600033 12.216,6 L12.854,6.924 Z M8.322,6.924 C7.79399736,7.33466872 7.38700143,7.74899791 7.101,8.167 C6.81499857,8.58500209 6.672,8.9773315 6.672,9.344 C6.73066696,9.31466652 6.80766619,9.29633337 6.903,9.289 C6.99833381,9.28166663 7.0826663,9.278 7.156,9.278 C7.49333502,9.278 7.77566553,9.41366531 8.003,9.685 C8.23033447,9.95633469 8.344,10.289998 8.344,10.686 C8.344,11.1700024 8.18266828,11.5733317 7.86,11.896 C7.53733172,12.2186683 7.13400242,12.38 6.65,12.38 C6.1366641,12.38 5.7333348,12.1930019 5.44,11.819 C5.1466652,11.4449981 5,10.9426698 5,10.312 C5,9.56399626 5.22733106,8.823337 5.682,8.09 C6.13666894,7.356663 6.8039956,6.6600033 7.684,6 L8.322,6.924 Z" id="“"></path>
        </g>
    </g>
</svg>