<?xml version="1.0" encoding="UTF-8"?>
<svg width="24px" height="24px" viewBox="0 0 24 24" version="1.1" xmlns="http://www.w3.org/2000/svg" xmlns:xlink="http://www.w3.org/1999/xlink">
    <!-- Generator: Sketch 48.2 (47327) - http://www.bohemiancoding.com/sketch -->
    <title>search</title>
    <desc>Created with Sketch.</desc>
    <defs></defs>
    <g id="Symbols" stroke="none" stroke-width="1" fill="none" fill-rule="evenodd">
        <g id="search" fill="#010101">
            <path d="M15.6052437,14.1944941 C15.622869,14.2098229 15.6400853,14.2258718 15.6568542,14.2426407 L21.3137085,19.8994949 C21.7042328,20.2900192 21.7042328,20.9231842 21.3137085,21.3137085 C20.9231842,21.7042328 20.2900192,21.7042328 19.8994949,21.3137085 L14.2426407,15.6568542 C14.2258718,15.6400853 14.2098229,15.622869 14.1944941,15.6052437 C11.4525719,17.6624385 7.54444485,17.4439398 5.05025253,14.9497475 C2.31658249,12.2160774 2.31658249,7.78392257 5.05025253,5.05025253 C7.78392257,2.31658249 12.2160774,2.31658249 14.9497475,5.05025253 C17.4439398,7.54444485 17.6624385,11.4525719 15.6052437,14.1944941 Z M6.46446609,13.5355339 C8.41708755,15.4881554 11.5829124,15.4881554 13.5355339,13.5355339 C15.4881554,11.5829124 15.4881554,8.41708755 13.5355339,6.46446609 C11.5829124,4.51184464 8.41708755,4.51184464 6.46446609,6.46446609 C4.51184464,8.41708755 4.51184464,11.5829124 6.46446609,13.5355339 Z" id="Combined-Shape"></path>
        </g>
    </g>
</svg>