<?xml version="1.0" encoding="UTF-8"?>
<svg width="18px" height="18px" viewBox="0 0 18 18" version="1.1" xmlns="http://www.w3.org/2000/svg" xmlns:xlink="http://www.w3.org/1999/xlink">
    <!-- Generator: Sketch 48.2 (47327) - http://www.bohemiancoding.com/sketch -->
    <title>search</title>
    <desc>Created with Sketch.</desc>
    <defs></defs>
    <g id="Symbols" stroke="none" stroke-width="1" fill="none" fill-rule="evenodd">
        <g id="search" fill="#010101">
            <path d="M12.6568542,11.2426407 L17.6066017,16.1923882 C17.997126,16.5829124 17.997126,17.2160774 17.6066017,17.6066017 C17.2160774,17.997126 16.5829124,17.997126 16.1923882,17.6066017 L11.2426407,12.6568542 C11.2258718,12.6400853 11.2098229,12.622869 11.1944941,12.6052437 C8.45257186,14.6624385 4.54444485,14.4439398 2.05025253,11.9497475 C-0.683417511,9.21607743 -0.683417511,4.78392257 2.05025253,2.05025253 C4.78392257,-0.683417511 9.21607743,-0.683417511 11.9497475,2.05025253 C14.4439398,4.54444485 14.6624385,8.45257186 12.6052437,11.1944941 C12.622869,11.2098229 12.6400853,11.2258718 12.6568542,11.2426407 Z M3.46446609,10.5355339 C5.41708755,12.4881554 8.58291245,12.4881554 10.5355339,10.5355339 C12.4881554,8.58291245 12.4881554,5.41708755 10.5355339,3.46446609 C8.58291245,1.51184464 5.41708755,1.51184464 3.46446609,3.46446609 C1.51184464,5.41708755 1.51184464,8.58291245 3.46446609,10.5355339 Z" id="Combined-Shape"></path>
        </g>
    </g>
</svg>