<?xml version="1.0" encoding="UTF-8"?>
<svg width="18px" height="18px" viewBox="0 0 18 18" version="1.1" xmlns="http://www.w3.org/2000/svg" xmlns:xlink="http://www.w3.org/1999/xlink">
    <!-- Generator: Sketch 48.2 (47327) - http://www.bohemiancoding.com/sketch -->
    <title>settings</title>
    <desc>Created with Sketch.</desc>
    <defs></defs>
    <g id="Symbols" stroke="none" stroke-width="1" fill="none" fill-rule="evenodd">
        <g id="settings" fill="#010101">
            <path d="M5.17070571,14 C5.58254212,12.8348076 6.69378117,12 8,12 C9.30621883,12 10.4174579,12.8348076 10.8292943,14 L17.0066023,14 C17.5552407,14 18,14.4438648 18,15 C18,15.5522847 17.5550537,16 17.0066023,16 L10.8292943,16 C10.4174579,17.1651924 9.30621883,18 8,18 C6.69378117,18 5.58254212,17.1651924 5.17070571,16 L0.993397683,16 C0.444759292,16 0,15.5561352 0,15 C0,14.4477153 0.444946289,14 0.993397683,14 L5.17070571,14 Z M11.1707057,8 C11.5825421,6.83480763 12.6937812,6 14,6 C15.3062188,6 16.4174579,6.83480763 16.8292943,8 L17.0066023,8 C17.5552407,8 18,8.44386482 18,9 C18,9.55228475 17.5550537,10 17.0066023,10 L16.8292943,10 C16.4174579,11.1651924 15.3062188,12 14,12 C12.6937812,12 11.5825421,11.1651924 11.1707057,10 L0.993397683,10 C0.444759292,10 0,9.55613518 0,9 C0,8.44771525 0.444946289,8 0.993397683,8 L11.1707057,8 Z M2.17070571,2 C2.58254212,0.834807627 3.69378117,0 5,0 C6.30621883,0 7.41745788,0.834807627 7.82929429,2 L17.0066023,2 C17.5552407,2 18,2.44386482 18,3 C18,3.55228475 17.5550537,4 17.0066023,4 L7.82929429,4 C7.41745788,5.16519237 6.30621883,6 5,6 C3.69378117,6 2.58254212,5.16519237 2.17070571,4 L0.993397683,4 C0.444759292,4 0,3.55613518 0,3 C0,2.44771525 0.444946289,2 0.993397683,2 L2.17070571,2 Z M5,4 C5.55228475,4 6,3.55228475 6,3 C6,2.44771525 5.55228475,2 5,2 C4.44771525,2 4,2.44771525 4,3 C4,3.55228475 4.44771525,4 5,4 Z M14,10 C13.4477153,10 13,9.55228475 13,9 C13,8.44771525 13.4477153,8 14,8 C14.5522847,8 15,8.44771525 15,9 C15,9.55228475 14.5522847,10 14,10 Z M8,16 C7.44771525,16 7,15.5522847 7,15 C7,14.4477153 7.44771525,14 8,14 C8.55228475,14 9,14.4477153 9,15 C9,15.5522847 8.55228475,16 8,16 Z" id="Combined-Shape"></path>
        </g>
    </g>
</svg>