<?xml version="1.0" encoding="UTF-8"?>
<svg width="24px" height="24px" viewBox="0 0 24 24" version="1.1" xmlns="http://www.w3.org/2000/svg" xmlns:xlink="http://www.w3.org/1999/xlink">
    <!-- Generator: Sketch 48.2 (47327) - http://www.bohemiancoding.com/sketch -->
    <title>settings</title>
    <desc>Created with Sketch.</desc>
    <defs></defs>
    <g id="Symbols" stroke="none" stroke-width="1" fill="none" fill-rule="evenodd">
        <g id="settings" fill="#010101">
            <path d="M8.17070571,17 C8.58254212,15.8348076 9.69378117,15 11,15 C12.3062188,15 13.4174579,15.8348076 13.8292943,17 L20.0066023,17 C20.5552407,17 21,17.4438648 21,18 C21,18.5522847 20.5550537,19 20.0066023,19 L13.8292943,19 C13.4174579,20.1651924 12.3062188,21 11,21 C9.69378117,21 8.58254212,20.1651924 8.17070571,19 L3.99339768,19 C3.44475929,19 3,18.5561352 3,18 C3,17.4477153 3.44494629,17 3.99339768,17 L8.17070571,17 Z M14.1707057,11 C14.5825421,9.83480763 15.6937812,9 17,9 C18.3062188,9 19.4174579,9.83480763 19.8292943,11 L20.0066023,11 C20.5552407,11 21,11.4438648 21,12 C21,12.5522847 20.5550537,13 20.0066023,13 L19.8292943,13 C19.4174579,14.1651924 18.3062188,15 17,15 C15.6937812,15 14.5825421,14.1651924 14.1707057,13 L3.99339768,13 C3.44475929,13 3,12.5561352 3,12 C3,11.4477153 3.44494629,11 3.99339768,11 L14.1707057,11 Z M5.17070571,5 C5.58254212,3.83480763 6.69378117,3 8,3 C9.30621883,3 10.4174579,3.83480763 10.8292943,5 L20.0066023,5 C20.5552407,5 21,5.44386482 21,6 C21,6.55228475 20.5550537,7 20.0066023,7 L10.8292943,7 C10.4174579,8.16519237 9.30621883,9 8,9 C6.69378117,9 5.58254212,8.16519237 5.17070571,7 L3.99339768,7 C3.44475929,7 3,6.55613518 3,6 C3,5.44771525 3.44494629,5 3.99339768,5 L5.17070571,5 Z M8,7 C8.55228475,7 9,6.55228475 9,6 C9,5.44771525 8.55228475,5 8,5 C7.44771525,5 7,5.44771525 7,6 C7,6.55228475 7.44771525,7 8,7 Z M17,13 C16.4477153,13 16,12.5522847 16,12 C16,11.4477153 16.4477153,11 17,11 C17.5522847,11 18,11.4477153 18,12 C18,12.5522847 17.5522847,13 17,13 Z M11,19 C10.4477153,19 10,18.5522847 10,18 C10,17.4477153 10.4477153,17 11,17 C11.5522847,17 12,17.4477153 12,18 C12,18.5522847 11.5522847,19 11,19 Z" id="Combined-Shape"></path>
        </g>
    </g>
</svg>