<?xml version="1.0" encoding="UTF-8"?>
<svg width="24px" height="24px" viewBox="0 0 24 24" version="1.1" xmlns="http://www.w3.org/2000/svg" xmlns:xlink="http://www.w3.org/1999/xlink">
    <g>
        <path d="M11,8 L13,8 C14.6568542,8 16,9.34314575 16,11 L16,13 C16,14.6568542 14.6568542,16 13,16 L11,16 C9.34314575,16 8,14.6568542 8,13 L8,11 C8,9.34314575 9.34314575,8 11,8 Z M11,10 C10.4477153,10 10,10.4477153 10,11 L10,13 C10,13.5522847 10.4477153,14 11,14 L13,14 C13.5522847,14 14,13.5522847 14,13 L14,11 C14,10.4477153 13.5522847,10 13,10 L11,10 Z"></path>
    </g>
</svg>