<?xml version="1.0" encoding="UTF-8"?>
<svg width="18px" height="18px" viewBox="0 0 18 18" version="1.1" xmlns="http://www.w3.org/2000/svg" xmlns:xlink="http://www.w3.org/1999/xlink">
    <!-- Generator: Sketch 48.2 (47327) - http://www.bohemiancoding.com/sketch -->
    <title>spinner</title>
    <desc>Created with Sketch.</desc>
    <defs></defs>
    <g id="Symbols" stroke="none" stroke-width="1" fill="none" fill-rule="evenodd">
        <g id="spinner" fill="#010101">
            <rect id="Rectangle-2" transform="translate(4.403806, 4.403806) rotate(225.000000) translate(-4.403806, -4.403806) " x="1.90380592" y="3.40380592" width="5" height="2" rx="1"></rect>
            <rect id="Rectangle-2" transform="translate(2.500000, 9.000000) rotate(180.000000) translate(-2.500000, -9.000000) " x="0" y="8" width="5" height="2" rx="1"></rect>
            <rect id="Rectangle-2" transform="translate(4.403806, 13.596194) rotate(135.000000) translate(-4.403806, -13.596194) " x="1.90380592" y="12.5961941" width="5" height="2" rx="1"></rect>
            <rect id="Rectangle-2" transform="translate(9.000000, 15.500000) rotate(90.000000) translate(-9.000000, -15.500000) " x="6.5" y="14.5" width="5" height="2" rx="1"></rect>
            <rect id="Rectangle-2" transform="translate(13.596194, 13.596194) rotate(225.000000) translate(-13.596194, -13.596194) " x="11.0961941" y="12.5961941" width="5" height="2" rx="1"></rect>
            <rect id="Rectangle-2" transform="translate(15.500000, 9.000000) rotate(180.000000) translate(-15.500000, -9.000000) " x="13" y="8" width="5" height="2" rx="1"></rect>
            <rect id="Rectangle-2" transform="translate(13.596194, 4.403806) rotate(135.000000) translate(-13.596194, -4.403806) " x="11.0961941" y="3.40380592" width="5" height="2" rx="1"></rect>
            <rect id="Rectangle-2" transform="translate(9.000000, 2.500000) rotate(90.000000) translate(-9.000000, -2.500000) " x="6.5" y="1.5" width="5" height="2" rx="1"></rect>
        </g>
    </g>
</svg>