<?xml version="1.0" encoding="UTF-8"?>
<svg width="24px" height="24px" viewBox="0 0 24 24" version="1.1" xmlns="http://www.w3.org/2000/svg" xmlns:xlink="http://www.w3.org/1999/xlink">
  <g stroke="none" fill-rule="evenodd" fill="#010101">
    <rect transform="translate(12.000000, 3.000000) rotate(90.000000) translate(-12.000000, -3.000000) " x="9" y="2" width="6" height="2" rx="1"></rect>
    <rect transform="translate(18.071068, 5.928932) rotate(-45.000000) translate(-18.071068, -5.928932) " x="15.0710678" y="4.92893219" width="6" height="2" rx="1"></rect>
    <rect x="18" y="11" width="6" height="2" rx="1"></rect>
    <rect transform="translate(18.071068, 18.071068) rotate(45.000000) translate(-18.071068, -18.071068) " x="15.0710678" y="17.0710678" width="6" height="2" rx="1"></rect>
    <rect transform="translate(12.000000, 21.000000) rotate(90.000000) translate(-12.000000, -21.000000) " x="9" y="20" width="6" height="2" rx="1"></rect>
    <rect transform="translate(5.928932, 18.071068) rotate(-45.000000) translate(-5.928932, -18.071068) " x="2.92893219" y="17.0710678" width="6" height="2" rx="1"></rect>
    <rect x="0" y="11" width="6" height="2" rx="1"></rect>
    <rect transform="translate(5.928932, 5.928932) rotate(45.000000) translate(-5.928932, -5.928932) " x="2.92893219" y="4.92893219" width="6" height="2" rx="1"></rect>
  </g>
</svg>
