<?xml version="1.0" encoding="UTF-8"?>
<svg width="24px" height="24px" viewBox="0 0 24 24" version="1.1" xmlns="http://www.w3.org/2000/svg" xmlns:xlink="http://www.w3.org/1999/xlink">
  <g transform="translate(7.000000, 4.000000)">
    <path d="M4.4,4.8173913 C4.4,4.13913043 4.95652174,3.87826087 5.87826087,3.87826087 C7.2,3.87826087 8.86956522,4.27826087 10.1913043,4.99130435 L10.1913043,0.904347826 C8.74782609,0.330434783 7.32173913,0.104347826 5.87826087,0.104347826 C2.34782609,0.104347826 0,1.94782609 0,5.02608696 C0,9.82608696 6.60869565,9.06086957 6.60869565,11.1304348 C6.60869565,11.9304348 5.91304348,12.1913043 4.93913043,12.1913043 C3.49565217,12.1913043 1.65217391,11.6 0.191304348,10.8 L0.191304348,14.9391304 C1.80869565,15.6347826 3.44347826,15.9304348 4.93913043,15.9304348 C8.55652174,15.9304348 11.0434783,14.1391304 11.0434783,11.026087 C11.026087,5.84347826 4.4,6.76521739 4.4,4.8173913 Z"></path>
  </g>
</svg>