<?xml version="1.0" encoding="UTF-8"?>
<svg width="18px" height="18px" viewBox="0 0 18 18" version="1.1" xmlns="http://www.w3.org/2000/svg" xmlns:xlink="http://www.w3.org/1999/xlink">
    <!-- Generator: Sketch 48.2 (47327) - http://www.bohemiancoding.com/sketch -->
    <title>ticket</title>
    <desc>Created with Sketch.</desc>
    <defs></defs>
    <g id="Symbols" stroke="none" stroke-width="1" fill="none" fill-rule="evenodd">
        <g id="ticket" fill="#010101">
            <path d="M17.4742424,6.27685425 C16.6931938,7.05790284 16.6931938,8.3242328 17.4742424,9.10528138 L9.69606781,16.883456 C8.91501923,17.6645046 7.64868927,17.6645046 6.86764069,16.883456 L1.21078644,11.2266017 C0.429737854,10.4455531 0.429737854,9.17922318 1.21078644,8.3981746 L8.98896103,0.620000005 C9.77000961,1.40104859 11.0363396,1.40104859 11.8173882,0.620000005 L17.4742424,6.27685425 Z M10.756728,8.04462121 C11.1472523,8.4351455 11.7804173,8.4351455 12.1709415,8.04462121 C12.5614658,7.65409692 12.5614658,7.02093194 12.1709415,6.63040764 L11.4638348,5.92330086 C11.0733105,5.53277657 10.4401455,5.53277657 10.0496212,5.92330086 C9.65909691,6.31382516 9.65909691,6.94699013 10.0496212,7.33751443 L10.756728,8.04462121 Z M9.34251442,3.80198052 L8.63540764,3.09487374 L7.22119408,4.5090873 L7.92830086,5.21619408 C8.31882515,5.60671837 8.95199013,5.60671837 9.34251442,5.21619408 C9.73303871,4.82566979 9.73303871,4.19250481 9.34251442,3.80198052 Z M14.2922619,8.75172799 C13.9017376,8.3612037 13.2685726,8.3612037 12.8780483,8.75172799 C12.487524,9.14225228 12.487524,9.77541726 12.8780483,10.1659416 L13.5851551,10.8730483 L14.9993687,9.45883477 L14.2922619,8.75172799 Z" id="Combined-Shape"></path>
        </g>
    </g>
</svg>