<?xml version="1.0" encoding="UTF-8"?>
<svg width="24px" height="24px" viewBox="0 0 24 24" version="1.1" xmlns="http://www.w3.org/2000/svg" xmlns:xlink="http://www.w3.org/1999/xlink">
    <!-- Generator: Sketch 48.2 (47327) - http://www.bohemiancoding.com/sketch -->
    <title>ticket</title>
    <desc>Created with Sketch.</desc>
    <defs></defs>
    <g id="Symbols" stroke="none" stroke-width="1" fill="none" fill-rule="evenodd">
        <g id="ticket" fill="#050505">
            <path d="M23.3110708,12.6796722 C24.0907457,13.4593471 24.0912031,14.7229926 23.3120924,15.5021033 L15.5035082,23.3106875 C14.7243975,24.0897982 13.460752,24.0893408 12.6810771,23.3096659 L1,11.6285888 C1.99856898,10.630291 1.99856898,9.04737854 1.02225825,8.07106781 L8.09332607,1 C9.0696368,1.97631073 10.6525492,1.97631073 11.62886,1 L23.3110708,12.6796722 Z M10.5693139,9.81284862 C10.9588693,9.42329326 10.9586406,8.79147053 10.5688031,8.40163306 C10.1789657,8.01179559 9.54714294,8.0115669 9.15758758,8.40112226 L8.4522352,9.10647464 C8.06267983,9.49603001 8.06290852,10.1278527 8.452746,10.5176902 C8.84258347,10.9075277 9.47440619,10.9077564 9.86396156,10.518201 L10.5693139,9.81284862 Z M5.61496144,11.9515869 L4.91955066,12.6469976 L6.31137942,14.0388264 L7.0067902,13.3434156 C7.39085497,12.9593509 7.3906295,12.3364334 7.0062866,11.9520905 C6.6219437,11.5677476 5.99902621,11.5675221 5.61496144,11.9515869 Z M11.9779705,5.58857784 C11.5939057,5.97264261 11.5941312,6.5955601 11.9784741,6.979903 C12.362817,7.3642459 12.9857345,7.36447137 13.3697992,6.9804066 L14.06521,6.28499582 L12.6733812,4.89316706 L11.9779705,5.58857784 Z" id="Combined-Shape"></path>
        </g>
    </g>
</svg>