<?xml version="1.0" encoding="UTF-8"?>
<svg width="18px" height="18px" viewBox="0 0 18 18" version="1.1" xmlns="http://www.w3.org/2000/svg" xmlns:xlink="http://www.w3.org/1999/xlink">
    <!-- Generator: Sketch 48.2 (47327) - http://www.bohemiancoding.com/sketch -->
    <title>twitter</title>
    <desc>Created with Sketch.</desc>
    <defs></defs>
    <g id="Symbols" stroke="none" stroke-width="1" fill="none" fill-rule="evenodd">
        <g id="twitter" fill="#050505">
            <path d="M18,3.73160009 C17.33778,4.0253601 16.6259699,4.22381011 15.8790599,4.31309012 C16.6413599,3.85607009 17.22699,3.13238006 17.50275,2.27000001 C16.7891399,2.69327003 15.9988499,3.00053005 15.1576199,3.16613006 C14.4840598,2.44838002 13.5242998,2 12.4621197,2 C10.4227196,2 8.76916754,3.65339008 8.76916754,5.69279018 C8.76916754,5.9822302 8.80181954,6.26411021 8.86479254,6.53438023 C5.79564839,6.38039022 3.07448025,4.91015015 1.25314116,2.67590003 C0.935225147,3.22130006 0.753116438,3.85571009 0.753116438,4.53251013 C0.753116438,5.81375019 1.40505217,6.94406025 2.39600622,7.60628028 C1.79064819,7.58711028 1.22119116,7.42097027 0.723339036,7.14440026 C0.722988036,7.15979026 0.722988036,7.17518026 0.722988036,7.19084026 C0.722988036,8.98006735 1.9959571,10.4725554 3.68529318,10.8119184 C3.37545917,10.8962934 3.04920915,10.9414734 2.71241114,10.9414734 C2.47444212,10.9414734 2.24310611,10.9182714 2.0175841,10.8751974 C2.48751912,12.3422695 3.85133419,13.4100386 5.46732027,13.4397116 C4.20345921,14.4302696 2.61116113,15.0206517 0.880945244,15.0206517 C0.582855329,15.0206517 0.288879314,15.0031107 0,14.9690096 C1.63427408,16.0167681 3.57543018,16.6282407 5.66089228,16.6282407 C12.4534806,16.6282407 16.1680508,11.0010985 16.1680508,6.12101021 C16.1680508,5.9609002 16.1643608,5.80169019 16.1572508,5.64329018 C16.8788699,5.12255016 17.50491,4.47221012 18,3.73160009" id="Shape"></path>
        </g>
    </g>
</svg>