<?xml version="1.0" encoding="UTF-8"?>
<svg width="24px" height="24px" viewBox="0 0 24 24" version="1.1" xmlns="http://www.w3.org/2000/svg" xmlns:xlink="http://www.w3.org/1999/xlink">
    <!-- Generator: Sketch 48.2 (47327) - http://www.bohemiancoding.com/sketch -->
    <title>twitter</title>
    <desc>Created with Sketch.</desc>
    <defs></defs>
    <g id="Symbols" stroke="none" stroke-width="1" fill="none" fill-rule="evenodd">
        <g id="twitter" fill="#050505">
            <path d="M21,6.73160009 C20.33778,7.0253601 19.6259699,7.22381011 18.8790599,7.31309012 C19.6413599,6.85607009 20.22699,6.13238006 20.50275,5.27000001 C19.7891399,5.69327003 18.9988499,6.00053005 18.1576199,6.16613006 C17.4840598,5.44838002 16.5242998,5 15.4621197,5 C13.4227196,5 11.7691675,6.65339008 11.7691675,8.69279018 C11.7691675,8.9822302 11.8018195,9.26411021 11.8647925,9.53438023 C8.79564839,9.38039022 6.07448025,7.91015015 4.25314116,5.67590003 C3.93522515,6.22130006 3.75311644,6.85571009 3.75311644,7.53251013 C3.75311644,8.81375019 4.40505217,9.94406025 5.39600622,10.6062803 C4.79064819,10.5871103 4.22119116,10.4209703 3.72333904,10.1444003 C3.72298804,10.1597903 3.72298804,10.1751803 3.72298804,10.1908403 C3.72298804,11.9800673 4.9959571,13.4725554 6.68529318,13.8119184 C6.37545917,13.8962934 6.04920915,13.9414734 5.71241114,13.9414734 C5.47444212,13.9414734 5.24310611,13.9182714 5.0175841,13.8751974 C5.48751912,15.3422695 6.85133419,16.4100386 8.46732027,16.4397116 C7.20345921,17.4302696 5.61116113,18.0206517 3.88094524,18.0206517 C3.58285533,18.0206517 3.28887931,18.0031107 3,17.9690096 C4.63427408,19.0167681 6.57543018,19.6282407 8.66089228,19.6282407 C15.4534806,19.6282407 19.1680508,14.0010985 19.1680508,9.12101021 C19.1680508,8.9609002 19.1643608,8.80169019 19.1572508,8.64329018 C19.8788699,8.12255016 20.50491,7.47221012 21,6.73160009" id="Shape"></path>
        </g>
    </g>
</svg>