<?xml version="1.0" encoding="UTF-8"?>
<svg width="18px" height="18px" viewBox="0 0 18 18" version="1.1" xmlns="http://www.w3.org/2000/svg" xmlns:xlink="http://www.w3.org/1999/xlink">
    <!-- Generator: Sketch 48.2 (47327) - http://www.bohemiancoding.com/sketch -->
    <title>underline</title>
    <desc>Created with Sketch.</desc>
    <defs></defs>
    <g id="Symbols" stroke="none" stroke-width="1" fill="none" fill-rule="evenodd">
        <g id="underline" fill="#010101">
            <path d="M8.5,14.2 C7.7133294,14.2 7.0700025,14.0033353 6.57,13.61 C6.0699975,13.2166647 5.82,12.6333372 5.82,11.86 L5.82,5.94 L4.56,5.32 L4.56,5 L7.42,5 L7.42,10.92 C7.42,11.5066696 7.6033315,11.9533318 7.97,12.26 C8.3366685,12.5666682 8.8133304,12.72 9.4,12.72 C9.7600018,12.72 10.1566645,12.6600006 10.59,12.54 C11.0233355,12.4199994 11.3666654,12.2466678 11.62,12.02 L11.62,5.94 L10.2,5.32 L10.2,5 L13.22,5 L13.22,13.1 L14.64,13.68 L14.64,14 L11.62,14 L11.62,12.74 L11.52,12.74 C11.0133308,13.2466692 10.5233357,13.6166655 10.05,13.85 C9.5766643,14.0833345 9.0600028,14.2 8.5,14.2 Z M4,16 L15,16 L15,17 L4,17 L4,16 Z" id="Combined-Shape"></path>
        </g>
    </g>
</svg>