<?xml version="1.0" encoding="UTF-8"?>
<svg width="18px" height="18px" viewBox="0 0 18 18" version="1.1" xmlns="http://www.w3.org/2000/svg" xmlns:xlink="http://www.w3.org/1999/xlink">
    <!-- Generator: Sketch 48.2 (47327) - http://www.bohemiancoding.com/sketch -->
    <title>underline</title>
    <desc>Created with Sketch.</desc>
    <defs></defs>
    <g id="Symbols" stroke="none" stroke-width="1" fill="none" fill-rule="evenodd">
        <g id="underline" fill="#010101">
            <path d="M12.26,8.2 C12.26,7.6533306 12.2466668,7.2233349 12.22,6.91 C12.1933332,6.5966651 12.1233339,6.3566675 12.01,6.19 C11.8966661,6.0233325 11.7300011,5.9100003 11.51,5.85 C11.2899989,5.7899997 10.9866686,5.7400002 10.6,5.7 L10.6,5 L14.22,5 L14.22,11.14 C14.22,11.9000038 14.2299999,12.5199976 14.25,13 C14.2700001,13.4800024 14.2999998,13.8399988 14.34,14.08 C14.3666668,14.2533342 14.4099997,14.3899995 14.47,14.49 C14.5300003,14.5900005 14.6199994,14.6699997 14.74,14.73 C14.8600006,14.7900003 15.0166657,14.8299999 15.21,14.85 C15.4033343,14.8700001 15.6533318,14.88 15.96,14.88 L15.96,15.58 L12.66,15.82 L12.44,13.42 L12.36,13.42 C11.8533308,14.2466708 11.2700033,14.8499981 10.61,15.23 C9.9499967,15.6100019 9.2600036,15.8 8.54,15.8 C7.9799972,15.8 7.4366693,15.6933344 6.91,15.48 C6.3833307,15.2666656 5.986668,14.9800018 5.72,14.62 C5.4933322,14.3266652 5.3300005,13.9200026 5.23,13.4 C5.1299995,12.8799974 5.08,12.2066708 5.08,11.38 L5.08,8.2 C5.08,7.6533306 5.0666668,7.2233349 5.04,6.91 C5.0133332,6.5966651 4.9433339,6.3566675 4.83,6.19 C4.7166661,6.0233325 4.5500011,5.9100003 4.33,5.85 C4.1099989,5.7899997 3.8066686,5.7400002 3.42,5.7 L3.42,5 L7.04,5 L7.04,10.46 C7.04,11.9133406 7.2099983,12.9666634 7.55,13.62 C7.8900017,14.2733366 8.4333296,14.6 9.18,14.6 C10.3533392,14.6 11.2666634,13.833341 11.92,12.3 C11.986667,12.1399992 12.0399998,11.993334 12.08,11.86 C12.1200002,11.726666 12.1533332,11.5800008 12.18,11.42 C12.2066668,11.2599992 12.2266666,11.080001 12.24,10.88 C12.2533334,10.679999 12.26,10.4400014 12.26,10.16 L12.26,8.2 Z M3,17 L16,17 L16,18 L3,18 L3,17 Z" id="u"></path>
        </g>
    </g>
</svg>