<?xml version="1.0" encoding="UTF-8"?>
<svg width="18px" height="18px" viewBox="0 0 18 18" version="1.1" xmlns="http://www.w3.org/2000/svg" xmlns:xlink="http://www.w3.org/1999/xlink">
    <!-- Generator: Sketch 48.2 (47327) - http://www.bohemiancoding.com/sketch -->
    <title>unlink</title>
    <desc>Created with Sketch.</desc>
    <defs></defs>
    <g id="Symbols" stroke="none" stroke-width="1" fill="none" fill-rule="evenodd">
        <g id="unlink" fill="#010101">
            <path d="M9.19238816,9.89949494 C9.97343674,10.6805435 11.2397667,10.6805435 12.0208153,9.89949494 L14.8492424,7.07106781 C15.630291,6.29001923 15.630291,5.02368927 14.8492424,4.24264069 C14.0681938,3.4615921 12.8018639,3.4615921 12.0208153,4.24264069 L10.3124144,5.95104156 C9.50337958,5.63400726 8.62839807,5.53582993 7.77851927,5.65650957 L10.6066017,2.82842712 C12.1686989,1.26632996 14.7013588,1.26632996 16.263456,2.82842712 C17.8255531,4.39052429 17.8255531,6.92318421 16.263456,8.48528137 L13.4350288,11.3137085 C11.8729318,12.8758055 9.34027232,12.8758057 7.77817511,11.313709 C7.3876503,10.9231842 7.3876503,10.2900192 7.77817459,9.89949494 C8.16869888,9.50897064 8.80186386,9.50897064 9.19238816,9.89949494 Z M9.89949494,9.19238816 C9.11844635,8.41133957 7.8521164,8.41133957 7.07106781,9.19238816 L4.24264069,12.0208153 C3.4615921,12.8018639 3.4615921,14.0681938 4.24264069,14.8492424 C5.02368927,15.630291 6.29001923,15.630291 7.07106781,14.8492424 L8.77946869,13.1408415 C9.58850351,13.4578758 10.463485,13.5560532 11.3133638,13.4353735 L8.48528137,16.263456 C6.92318421,17.8255531 4.39052429,17.8255531 2.82842712,16.263456 C1.26632996,14.7013588 1.26632996,12.1686989 2.82842712,10.6066017 L5.65685425,7.77817459 C7.21895124,6.2160776 9.75161077,6.21607743 11.313708,7.77817407 C11.7042328,8.16869888 11.7042328,8.80186386 11.3137085,9.19238816 C10.9231842,9.58291245 10.2900192,9.58291245 9.89949494,9.19238816 Z M1,5 L3,5 C3.55228475,5 4,5.44771525 4,6 C4,6.55228475 3.55228475,7 3,7 L1,7 C0.44771525,7 6.76353751e-17,6.55228475 0,6 C-6.76353751e-17,5.44771525 0.44771525,5 1,5 Z M6,0 C6.55228475,-1.01453063e-16 7,0.44771525 7,1 L7,3 C7,3.55228475 6.55228475,4 6,4 C5.44771525,4 5,3.55228475 5,3 L5,1 C5,0.44771525 5.44771525,1.01453063e-16 6,0 Z M2,3 C1.44771525,3 1,2.55228475 1,2 C1,1.44771525 1.44771525,1 2,1 C2.55228475,1 3,1.44771525 3,2 C3,2.55228475 2.55228475,3 2,3 Z" id="Combined-Shape"></path>
        </g>
    </g>
</svg>