<?xml version="1.0" encoding="UTF-8"?>
<svg width="18px" height="18px" viewBox="0 0 18 18" version="1.1" xmlns="http://www.w3.org/2000/svg" xmlns:xlink="http://www.w3.org/1999/xlink">
    <!-- Generator: Sketch 48.2 (47327) - http://www.bohemiancoding.com/sketch -->
    <title>unlock</title>
    <desc>Created with Sketch.</desc>
    <defs></defs>
    <g id="Symbols" stroke="none" stroke-width="1" fill="none" fill-rule="evenodd">
        <g id="unlock" fill="#010101">
            <path d="M13,8 L13,6 C13,3.790861 11.209139,2 9,2 C6.790861,2 5,3.790861 5,6 C5,6.55228475 4.55613518,7 4,7 C3.44771525,7 3,6.55613518 3,6 C3,2.6862915 5.6862915,0 9,0 C12.3137085,0 15,2.6862915 15,6 L15,8 C15.5522847,8 16,8.44771525 16,9 L16,17 C16,17.5522847 15.5522847,18 15,18 L3,18 C2.44771525,18 2,17.5522847 2,17 L2,9 C2,8.44771525 2.44771525,8 3,8 L13,8 Z M10,13.7324356 L10,15 C10,15.5522847 9.55228475,16 9,16 C8.44771525,16 8,15.5522847 8,15 L8,13.7324356 C7.40219863,13.3866262 7,12.7402824 7,12 C7,10.8954305 7.8954305,10 9,10 C10.1045695,10 11,10.8954305 11,12 C11,12.7402824 10.5978014,13.3866262 10,13.7324356 Z" id="Combined-Shape"></path>
        </g>
    </g>
</svg>