<?xml version="1.0" encoding="UTF-8"?>
<svg width="24px" height="24px" viewBox="0 0 24 24" version="1.1" xmlns="http://www.w3.org/2000/svg" xmlns:xlink="http://www.w3.org/1999/xlink">
    <!-- Generator: Sketch 48.2 (47327) - http://www.bohemiancoding.com/sketch -->
    <title>wand</title>
    <desc>Created with Sketch.</desc>
    <defs></defs>
    <g id="Symbols" stroke="none" stroke-width="1" fill="none" fill-rule="evenodd">
        <g id="wand" fill="#010101">
            <path d="M16.1441198,9.27282199 C16.9243534,10.0530556 16.9217256,11.320692 16.1491529,12.0932646 L4.8224268,23.4199908 C4.04497294,24.1974446 2.77955589,24.1925294 2.00198415,23.4149576 L0.584819293,21.9977928 C-0.195414314,21.2175592 -0.192786558,19.9499228 0.579786117,19.1773501 L11.9065123,7.85062396 C12.6839661,7.0731701 13.9493832,7.0780854 14.7269549,7.85565714 L16.1441198,9.27282199 Z M14.7284306,10.6855599 L13.314217,9.27134634 L10.4857899,12.0997735 L11.9000034,13.513987 L14.7284306,10.6855599 Z M19.6817125,4.33780222 C20.085628,4.71445952 20.1103511,5.34442277 19.7310678,5.75115429 C19.3544106,6.15506978 18.7244473,6.17979291 18.3177158,5.80050963 C17.9138003,5.42385233 17.8890772,4.79388909 18.2683604,4.38715757 C18.6450177,3.98324207 19.274981,3.95851895 19.6817125,4.33780222 Z M20.1387394,9.03286254 C20.1579937,9.58423493 19.730008,10.0467012 19.1742116,10.0661101 C18.6222633,10.0853845 18.1593722,9.65861888 18.1399577,9.10266153 L18.1049854,8.1011851 C18.085731,7.54981271 18.5137167,7.08734642 19.0695131,7.06793758 C19.6214615,7.04866312 20.0843526,7.47542876 20.103767,8.03138611 L20.1387394,9.03286254 Z M19.8944429,2.03712675 C19.9136972,2.58849914 19.4857115,3.05096543 18.9299152,3.07037427 C18.3779668,3.08964873 17.9150757,2.66288309 17.8956612,2.10692575 L17.8606889,1.10544931 C17.8414346,0.554076923 18.2694203,0.0916106289 18.8252167,0.0722017911 C19.377165,0.0529273313 19.8400561,0.479692969 19.8594706,1.03565032 L19.8944429,2.03712675 Z M15.0338754,6.08603292 C14.482503,6.10528727 14.0200367,5.67730157 14.0006279,5.12150517 C13.9813534,4.56955686 14.4081191,4.10666572 14.9640764,4.08725126 L15.9655529,4.05227894 C16.5169253,4.03302459 16.9793915,4.46101029 16.9988004,5.01680668 C17.0180748,5.56875499 16.5913092,6.03164613 16.0353519,6.05106059 L15.0338754,6.08603292 Z M22.0338754,6.08603292 C21.482503,6.10528727 21.0200367,5.67730157 21.0006279,5.12150517 C20.9813534,4.56955686 21.4081191,4.10666572 21.9640764,4.08725126 L22.9655529,4.05227894 C23.5169253,4.03302459 23.9793915,4.46101029 23.9988004,5.01680668 C24.0180748,5.56875499 23.5913092,6.03164613 23.0353519,6.05106059 L22.0338754,6.08603292 Z" id="Combined-Shape"></path>
        </g>
    </g>
</svg>