<?xml version="1.0" encoding="UTF-8"?>
<svg width="18px" height="18px" viewBox="0 0 18 18" version="1.1" xmlns="http://www.w3.org/2000/svg" xmlns:xlink="http://www.w3.org/1999/xlink">
    <!-- Generator: Sketch 48.2 (47327) - http://www.bohemiancoding.com/sketch -->
    <title>youtube</title>
    <desc>Created with Sketch.</desc>
    <defs></defs>
    <g id="Symbols" stroke="none" stroke-width="1" fill="none" fill-rule="evenodd">
        <g id="youtube" fill="#010101">
            <path d="M2.27294555,15.3698181 C1.50881393,15.2892074 0.644328552,14.5831543 0.382372838,13.6830712 C0.120417124,12.7829881 0,10.5340344 0,9.28848269 C0,8.04293097 0.303137334,5.27294555 0.365265133,5.02895231 C0.616926958,4.04060593 1.4940837,3.30305941 2.55706374,3.30305941 C5.35885059,3.1010198 7.47553113,3 8.92604659,3 C10.376562,3 12.603733,3.1010198 15.6075594,3.30305941 C16.6723715,3.31189113 17.5611761,4.05900958 17.7870877,5.05757921 C18.0129993,6.05614884 18.0825446,11.9719735 17.880505,13.3139344 C17.7439376,14.4703914 16.8197971,15.273906 15.60102,15.3875198 C13.3687021,15.6274753 11.1437508,15.7284951 8.92604659,15.7284951 C6.7083424,15.7284951 3.18212377,15.4657303 2.27294555,15.3698181 Z M7.12189606,6.48518318 L7.12189606,12.2433119 L12.1223763,9.36424754 L7.12189606,6.48518318 Z" id="Combined-Shape"></path>
        </g>
    </g>
</svg>