<?xml version="1.0" encoding="UTF-8"?>
<svg width="24px" height="24px" viewBox="0 0 24 24" version="1.1" xmlns="http://www.w3.org/2000/svg" xmlns:xlink="http://www.w3.org/1999/xlink">
    <g>
        <path d="M5.27294555,18.3698181 C4.50881393,18.2892074 3.64432855,17.5831543 3.38237284,16.6830712 C3.12041712,15.7829881 3,13.5340344 3,12.2884827 C3,11.042931 3.30313733,8.27294555 3.36526513,8.02895231 C3.61692696,7.04060593 4.4940837,6.30305941 5.55706374,6.30305941 C8.35885059,6.1010198 10.4755311,6 11.9260466,6 C13.376562,6 15.603733,6.1010198 18.6075594,6.30305941 C19.6723715,6.31189113 20.5611761,7.05900958 20.7870877,8.05757921 C21.0129993,9.05614884 21.0825446,14.9719735 20.880505,16.3139344 C20.7439376,17.4703914 19.8197971,18.273906 18.60102,18.3875198 C16.3687021,18.6274753 14.1437508,18.7284951 11.9260466,18.7284951 C9.7083424,18.7284951 6.18212377,18.4657303 5.27294555,18.3698181 Z M10.1218961,9.48518318 L10.1218961,15.2433119 L15.1223763,12.3642475 L10.1218961,9.48518318 Z"></path>
    </g>
</svg>
